<?xml version="1.0" encoding="utf-8"?>
<!-- Generator: Adobe Illustrator 23.0.5, SVG Export Plug-In . SVG Version: 6.00 Build 0)  -->
<svg version="1.1" xmlns="http://www.w3.org/2000/svg" xmlns:xlink="http://www.w3.org/1999/xlink" x="0px" y="0px"
	 viewBox="0 0 750 500" style="enable-background:new 0 0 750 500;" xml:space="preserve">
<style type="text/css">
	.st0{display:none;}
	.st1{display:inline;}
	.st2{fill:url(#SVGID_1_);}
	.st3{fill:#FFFFFF;}
	.st4{fill:#341D3F;}
	.st5{fill:#96BDFF;}
	.st6{fill:#595CFF;}
	.st7{fill:#F4E3B8;}
	.st8{fill:#E6E6E6;}
	.st9{fill:#99ACE3;}
	.st10{fill:#D69C25;}
	.st11{fill:#95455C;}
	.st12{fill:#60AECF;}
	.st13{fill:url(#SVGID_2_);}
	.st14{fill:#F9FAFF;}
	.st15{fill:#E26B6D;}
	.st16{fill:#EBADAB;}
	.st17{fill:#8D90FF;}
	.st18{fill:#4E3058;}
	.st19{fill:#D2E0E6;}
	.st20{fill:#B2DEE8;}
	.st21{fill:#E79092;}
	.st22{fill:url(#SVGID_3_);}
	.st23{fill:url(#SVGID_4_);}
	.st24{fill:#382A4B;}
	.st25{opacity:0.7;fill:#1F2641;}
</style>
<g id="BACKGROUND" class="st0">
	<g class="st1">
		<g>
			<g>
				<linearGradient id="SVGID_1_" gradientUnits="userSpaceOnUse" x1="375" y1="551.6305" x2="375" y2="1.1255">
					<stop  offset="3.886220e-03" style="stop-color:#B2DEE8"/>
					<stop  offset="8.833892e-03" style="stop-color:#B3DEE8"/>
					<stop  offset="0.2452" style="stop-color:#CDE4ED"/>
					<stop  offset="0.4865" style="stop-color:#E0E9F1"/>
					<stop  offset="0.7349" style="stop-color:#EBEBF3"/>
					<stop  offset="1" style="stop-color:#EFECF4"/>
				</linearGradient>
				<rect class="st2" width="750" height="500"/>
			</g>
		</g>
		<g>
			<path class="st3" d="M685.9,154.9c-8.2-11.4-19.3-20.9-31.7-27.7C632,115,606,110.9,580.6,111.7c-32.9,1.1-68,9.4-97.1-5.8
				c-18.4-9.7-31.1-27.3-45.1-42.6c-20.6-22.6-55.1-39.3-86.4-29.1c-12.3,4-23.4,12-32.5,21c-17,16.7-30.7,37.6-51.7,49
				c-31.9,17.3-70.8,8-107.1,8.2c-33.1,0.2-67.8,9.9-90.5,34.1c-22.6,24.2-29.1,64.9-8.4,90.8c17,21.2,46.8,27.8,73.9,26.3
				c13.4-0.7,26.8-3,40.1-1.9c13.4,1.1,27.2,6.2,34.9,17.2c11.9,16.9,5,40.6-6.2,57.9C193.4,354,178,369.3,172.1,389
				c-9.6,32.3,11.4,69,42.6,81.6s68.8,2.9,93.9-19.5c19.5-17.4,35.7-43.4,61.8-45.6c26-2.2,46.3,20.5,65.4,38.3
				c21.6,20,49.2,36.5,78.6,34.5c22.2-1.5,43.3-14.2,55.1-33c11.8-18.9,13.9-43.4,5.5-64c-7.3-17.8-21.4-31.8-31.3-48.2
				c-9.9-16.4-15.2-38.6-4-54.2c8.1-11.4,22.8-16.1,36.7-17.5c32.5-3.2,68.2,7.4,96.1-9.5c21.7-13.2,31.9-41.4,27-66.3
				C697.3,174.5,692.6,164.1,685.9,154.9z"/>
		</g>
	</g>
</g>
<g id="OBJECTS">
	<g>
		<g>
			<g>
				<g>
					<path class="st4" d="M254.9,69.2c-0.3-0.3-0.4-0.8-0.2-1.2c0.3-0.5,0.9-0.7,1.4-0.4c1.8,1,3.6,2,5.3,3c0.5,0.3,0.6,0.9,0.3,1.4
						c-0.3,0.5-0.9,0.6-1.4,0.3c-1.7-1-3.4-2-5.2-2.9C255.1,69.3,255,69.3,254.9,69.2z"/>
				</g>
				<g>
					<path class="st4" d="M183.8,175.6c-0.1-0.1-0.1-0.1-0.2-0.2c-1.7-3-3.2-6.7-4.6-10.9c-0.2-0.5,0.1-1.1,0.7-1.3
						c0.5-0.2,1.1,0.1,1.3,0.7c1.3,4.1,2.7,7.6,4.4,10.5c0.3,0.5,0.1,1.1-0.4,1.4C184.6,176,184.1,175.9,183.8,175.6z M176.6,153.5
						c-0.1-0.1-0.2-0.3-0.3-0.5c-0.7-3.7-1.3-7.6-1.7-11.6c-0.1-0.5,0.3-1,0.9-1.1c0.5-0.1,1,0.3,1.1,0.9c0.4,4,1,7.8,1.7,11.5
						c0.1,0.5-0.3,1.1-0.8,1.2C177.1,153.9,176.8,153.7,176.6,153.5z M174,130.4c-0.2-0.2-0.3-0.4-0.3-0.7c-0.1-1.6-0.1-3.1-0.1-4.4
						c0-2.5,0.2-5,0.6-7.4c0.1-0.5,0.6-0.9,1.1-0.8c0.5,0.1,0.9,0.6,0.8,1.1c-0.4,2.3-0.5,4.7-0.5,7.1c0,1.3,0,2.8,0.1,4.4
						c0,0.6-0.4,1-1,1C174.5,130.7,174.2,130.6,174,130.4z M178.7,117c-0.5-0.5-1-1-1.4-1.5c-0.4-0.4-0.3-1,0.1-1.4
						c0.4-0.4,1-0.3,1.4,0.1c2.5,2.8,5.5,5.1,8.9,6.9c0.5,0.3,0.7,0.9,0.4,1.3c-0.3,0.5-0.9,0.7-1.3,0.4
						C183.7,121.3,181,119.4,178.7,117z M171.7,105.5c-0.1-0.1-0.2-0.3-0.3-0.4c-1.1-3.8-1.5-7.8-1.2-11.9c0-0.6,0.5-1,1.1-0.9
						c0.6,0,1,0.5,0.9,1.1c-0.3,3.9,0.1,7.6,1.1,11.2c0.2,0.5-0.1,1.1-0.7,1.2C172.3,105.8,171.9,105.7,171.7,105.5z M177.9,107.7
						c-0.3-0.3-0.4-0.8-0.2-1.2c1.4-2.7,3-5,5-7c0.8-0.8,1.7-1.6,2.6-2.3c0.4-0.3,1.1-0.3,1.4,0.2c0.3,0.4,0.2,1.1-0.2,1.4
						c-0.8,0.6-1.6,1.3-2.4,2.1c-1.8,1.8-3.3,4-4.6,6.5c-0.2,0.5-0.9,0.7-1.3,0.4C178.1,107.8,178,107.7,177.9,107.7z M197.6,125.8
						c-0.2-0.2-0.3-0.5-0.3-0.8c0-0.6,0.5-1,1-0.9c0.8,0,1.6,0,2.4,0c2.7-0.2,5.5-1.1,8.1-2.7c0.5-0.3,1.1-0.2,1.4,0.3
						c0.3,0.5,0.2,1.1-0.3,1.4c-2.8,1.8-6,2.8-9,3c-0.9,0.1-1.8,0.1-2.6,0C198,126.1,197.8,126,197.6,125.8z M173.3,82.7
						c-0.3-0.3-0.4-0.7-0.2-1.1c1-2.3,2.2-4.5,3.6-6.5c0.9-1.2,1.8-2.5,2.8-3.6c0.4-0.4,1-0.5,1.4-0.1c0.4,0.4,0.5,1,0.1,1.4
						c-0.9,1.1-1.8,2.2-2.7,3.4c-1.3,1.9-2.5,4-3.4,6.1c-0.2,0.5-0.8,0.7-1.3,0.5C173.5,82.9,173.4,82.8,173.3,82.7z M196,94.6
						c-0.2-0.2-0.3-0.4-0.3-0.6c-0.1-0.5,0.3-1.1,0.9-1.1c4.2-0.6,8.4-0.2,12,1.1c0.5,0.2,0.8,0.8,0.6,1.3c-0.2,0.5-0.8,0.8-1.3,0.6
						c-3.3-1.1-7.2-1.5-11-1C196.5,94.9,196.2,94.8,196,94.6z M216.2,114.3c-0.3-0.3-0.4-0.7-0.2-1.1c1-2.3,1.3-4.6,0.9-6.9
						c-0.2-1.3-0.5-2.5-1-3.6c-0.2-0.5,0-1.1,0.5-1.3c0.5-0.2,1.1,0,1.3,0.5c0.6,1.3,1,2.7,1.2,4.1c0.4,2.7,0,5.4-1.1,8
						c-0.2,0.5-0.8,0.7-1.3,0.5C216.4,114.4,216.3,114.3,216.2,114.3z M188.2,65.3c-0.1,0-0.1-0.1-0.1-0.2c-0.3-0.5-0.2-1.1,0.3-1.4
						c3.3-2.1,6.9-3.8,10.8-5c0.5-0.2,1.1,0.1,1.2,0.7c0.2,0.5-0.1,1.1-0.7,1.3c-3.7,1.1-7.2,2.7-10.3,4.8
						C189.1,65.7,188.6,65.6,188.2,65.3z M210.2,58.3c-0.2-0.2-0.3-0.4-0.3-0.6c0-0.6,0.4-1,0.9-1.1c3.8-0.3,7.7-0.2,11.8,0.3
						c0.6,0.1,0.9,0.6,0.9,1.1c-0.1,0.5-0.6,0.9-1.1,0.9c-4-0.4-7.8-0.5-11.4-0.3C210.7,58.6,210.4,58.5,210.2,58.3z M233.3,60.7
						c-0.2-0.2-0.4-0.6-0.3-1c0.1-0.5,0.7-0.9,1.2-0.7c3.7,1,7.5,2.2,11.2,3.6c0.5,0.2,0.8,0.8,0.6,1.3c-0.2,0.5-0.8,0.8-1.3,0.6
						c-3.6-1.4-7.3-2.6-11-3.6C233.5,60.9,233.4,60.8,233.3,60.7z"/>
				</g>
				<g>
					<path class="st4" d="M191.5,184.2c-0.3-0.3-0.4-0.8-0.2-1.2c0.3-0.5,0.9-0.6,1.4-0.3c1.6,1,3.4,1.6,5.2,1.8
						c0.6,0.1,0.9,0.6,0.9,1.1c-0.1,0.5-0.6,0.9-1.1,0.9c-2.1-0.2-4.2-0.9-6-2.1C191.6,184.3,191.6,184.3,191.5,184.2z"/>
				</g>
			</g>
			<g>
				<polygon class="st5" points="253.7,60.2 247.9,77.4 283.5,84.5 				"/>
				<polygon class="st3" points="250.6,62.3 240.3,71.8 283.5,84.5 260,55.2 253.7,60.2 274.3,79.2 				"/>
			</g>
		</g>
		<g>
			<g>
				<g>
					<path class="st4" d="M420,129.9c-0.1,0-0.2,0-0.3,0c-0.5-0.2-0.8-0.7-0.7-1.2c0.6-1.9,1.3-3.9,2.1-5.7c0.2-0.5,0.8-0.7,1.3-0.5
						c0.5,0.2,0.7,0.8,0.5,1.3c-0.8,1.8-1.5,3.6-2,5.5C420.8,129.6,420.4,129.9,420,129.9z"/>
				</g>
				<g>
					<path class="st4" d="M478.1,132.1c-0.1,0-0.2,0-0.3,0c-3.9-0.9-7.4-3.2-10.2-6.8c-0.3-0.4-0.3-1.1,0.2-1.4
						c0.4-0.3,1.1-0.3,1.4,0.2c2.5,3.2,5.5,5.3,9,6.1c0.5,0.1,0.9,0.7,0.8,1.2C478.9,131.8,478.5,132.1,478.1,132.1z M489.6,130.5
						c-0.4,0-0.7-0.2-0.9-0.5c-0.3-0.5-0.1-1.1,0.4-1.3c3.4-1.8,6.2-4.5,7.8-7.7c0.3-0.5,0.9-0.7,1.3-0.4c0.5,0.3,0.7,0.9,0.4,1.3
						c-1.8,3.6-4.9,6.7-8.7,8.6C489.8,130.4,489.7,130.5,489.6,130.5z M576.9,113.9c-0.5,0-0.9-0.3-1-0.8c-0.8-3.6-2.2-7.1-4.3-10.6
						c-0.3-0.5-0.1-1.1,0.3-1.4c0.5-0.3,1.1-0.1,1.4,0.3c2.2,3.7,3.7,7.4,4.5,11.2c0.1,0.5-0.2,1.1-0.8,1.2
						C577,113.9,576.9,113.9,576.9,113.9z M463.8,115c-0.5,0-0.9-0.3-1-0.8c-0.1-1-0.2-1.9-0.3-2.9c-0.1-3.1,0.3-6.1,1.1-9.2
						c0.2-0.5,0.7-0.8,1.2-0.7c0.5,0.2,0.8,0.7,0.7,1.2c-0.8,2.9-1.2,5.7-1.1,8.6c0,0.9,0.1,1.8,0.3,2.7c0.1,0.5-0.3,1.1-0.8,1.1
						C463.9,115,463.9,115,463.8,115z M428.1,114.1c-0.2,0-0.5-0.1-0.6-0.2c-0.4-0.3-0.5-1-0.2-1.4c2.4-3.2,5.2-6.1,8.3-8.7
						c0.4-0.4,1.1-0.3,1.4,0.1c0.4,0.4,0.3,1.1-0.1,1.4c-3,2.5-5.7,5.3-8,8.3C428.7,114,428.4,114.1,428.1,114.1z M498.7,110.9
						c-0.4,0-0.8-0.2-1-0.7c-1.1-3-3.3-5.8-6.5-8.2c-0.2-0.1-0.3-0.2-0.5-0.3c-0.4-0.3-0.5-0.9-0.2-1.4c0.3-0.4,0.9-0.5,1.4-0.2
						c0.2,0.1,0.3,0.2,0.5,0.4c3.6,2.7,6,5.8,7.2,9.1c0.2,0.5-0.1,1.1-0.6,1.3C498.9,110.8,498.8,110.8,498.7,110.9z M446.2,99.2
						c-0.4,0-0.8-0.2-0.9-0.6c-0.2-0.5,0-1.1,0.5-1.3c3.7-1.8,7.5-3.1,11.4-3.9c0.5-0.1,1.1,0.2,1.2,0.8c0.1,0.5-0.2,1.1-0.8,1.2
						c-3.7,0.8-7.4,2-10.9,3.7C446.5,99.2,446.3,99.2,446.2,99.2z M565.2,93.7c-0.3,0-0.5-0.1-0.8-0.3c-2.6-2.7-5.6-5.2-8.9-7.5
						c-0.5-0.3-0.6-0.9-0.2-1.4c0.3-0.5,0.9-0.6,1.4-0.2c3.4,2.4,6.5,5,9.2,7.7c0.4,0.4,0.4,1,0,1.4
						C565.6,93.6,565.4,93.7,565.2,93.7z M480.7,96.7c-0.1,0-0.2,0-0.3,0c-3.6-1.1-7.4-1.8-11.4-2c-0.6,0-1-0.5-0.9-1.1
						c0-0.6,0.5-1,1.1-0.9c0.1,0,0.2,0,0.3,0c0,0-0.1,0-0.1-0.1c-0.4-0.3-0.5-1-0.2-1.4c2.3-3.1,5.2-6,8.5-8.6
						c0.4-0.3,1.1-0.3,1.4,0.2c0.3,0.4,0.3,1.1-0.2,1.4c-3.1,2.5-5.8,5.2-8.1,8.2c-0.1,0.2-0.3,0.3-0.4,0.3c3.7,0.3,7.3,1,10.7,2
						c0.5,0.2,0.8,0.7,0.7,1.2C481.5,96.4,481.1,96.7,480.7,96.7z M545.9,80.2c-0.2,0-0.3,0-0.5-0.1c-0.7-0.3-1.4-0.7-2.2-1
						c-2.8-1.2-5.7-2.2-8.8-3c-0.5-0.1-0.8-0.7-0.7-1.2c0.1-0.5,0.7-0.8,1.2-0.7c3.1,0.9,6.2,1.9,9,3.1c0.7,0.3,1.5,0.7,2.2,1
						c0.5,0.2,0.7,0.8,0.5,1.3C546.6,80,546.3,80.2,545.9,80.2z M488.4,78.4c-0.4,0-0.8-0.2-1-0.6c-0.2-0.5,0-1.1,0.5-1.3l0.3-0.1
						c3.5-1.4,7.2-2.6,11.2-3.4c0.5-0.1,1.1,0.2,1.2,0.8c0.1,0.5-0.2,1.1-0.8,1.2c-3.8,0.8-7.5,1.9-10.8,3.3l-0.3,0.1
						C488.6,78.3,488.5,78.4,488.4,78.4z M523.2,73.9c0,0-0.1,0-0.2,0c-3.9-0.4-7.8-0.6-11.7-0.4c-0.6,0-1-0.4-1-1c0-0.6,0.4-1,1-1
						c0,0,0,0,0,0c4-0.2,8,0,12,0.4c0.5,0.1,0.9,0.6,0.9,1.1C524.1,73.5,523.7,73.9,523.2,73.9z"/>
				</g>
				<g>
					<path class="st4" d="M575.5,131.5c-0.1,0-0.3,0-0.4-0.1c-0.5-0.2-0.8-0.8-0.6-1.3c0.7-1.8,1.2-3.7,1.5-5.6
						c0.1-0.5,0.6-0.9,1.2-0.8c0.5,0.1,0.9,0.6,0.8,1.2c-0.4,2-0.9,4-1.6,6C576.3,131.3,575.9,131.5,575.5,131.5z"/>
				</g>
			</g>
			<g>
				
					<rect x="399.6" y="136.9" transform="matrix(0.9991 -4.168908e-02 4.168908e-02 0.9991 -5.8802 17.5551)" class="st6" width="36.7" height="25.7"/>
				<g>
					<polygon class="st7" points="432.4,144.7 418.5,154.2 403.5,145.9 402.2,115.2 431.2,114 					"/>
				</g>
				<g>
					<path class="st4" d="M426.6,119.8l-19.8,0.8c-1.2,0-1.1,1.8,0.1,1.8l19.8-0.8C427.8,121.5,427.8,119.7,426.6,119.8z"/>
					<path class="st4" d="M426.8,125.8l-19.8,0.8c-1.2,0-1.1,1.8,0.1,1.8l19.8-0.8C428.1,127.5,428,125.7,426.8,125.8z"/>
					<path class="st4" d="M427.1,131.7l-19.8,0.8c-1.2,0-1.1,1.8,0.1,1.8l19.8-0.8C428.3,133.5,428.3,131.7,427.1,131.7z"/>
					<path class="st4" d="M427.3,137.7l-19.8,0.8c-1.2,0-1.1,1.8,0.1,1.8l19.8-0.8C428.6,139.5,428.5,137.7,427.3,137.7z"/>
				</g>
			</g>
			<path class="st4" d="M433.2,144.3c-5.1,3-10.1,6.2-14.9,9.6c-5.1-3-10.3-5.7-15.7-8.3c-0.6-0.3-1,0.6-0.5,0.9
				c5.3,2.6,10.5,5.4,15.6,8.3c0.1,0.2,0.3,0.4,0.6,0.3c0.2,0.1,0.4-0.1,0.5-0.3c4.8-3.4,9.8-6.6,14.9-9.6
				C434.3,144.9,433.7,144,433.2,144.3z"/>
		</g>
	</g>
	<g>
		<ellipse class="st8" cx="486.9" cy="406.1" rx="80.5" ry="10"/>
		<g>
			<g>
				<g>
					<g>
						<g>
							<path class="st9" d="M600.2,266.7c-1.3,4.1-2.6,8.4-2.8,12.6c0,1-0.6,4.2,0.2,5c0.8,0.9,3.4-0.5,4.5-0.8
								c3.1-0.9,6.3-1.2,9.5-2.1c4-1.1,8.3-1.9,12.3-2.3c0.4,0,0.8-0.1,1.2-0.1c1.5-0.1,3,0,4.4,0.5c1.8,0.6,3.2,1.8,3.6,4.1
								c0.8,3.7-3,8.9-4.9,11.8c-0.2,0.2-0.3,0.5-0.5,0.7c-2.4,3.7-5,7.5-5.8,11.8c-0.4,2.1-0.1,4.3,0.9,6.3c0.5,1.1,1.2,2.1,2,2.9
								c0.8,0.8,1.6,1.5,2.5,2c1.9,1.1,4,1.5,6.2,1.4c1.2,0,2.4-0.2,3.6-0.4c0.6-0.1,1.2-0.2,1.8-0.4c2.5-0.7,4.7-1.8,6.9-3.1
								c0.8-0.4,1.5-0.9,2.2-1.4c1.6-1.1,3.2-2.3,4.8-3.5c1.2-0.9,2.4-1.8,3.5-2.8c1.7-1.4,3.3-2.9,4.9-4.4c1.8-1.7,3.5-3.5,5.2-5.2
								c2.7-2.9,5.3-6,7.8-9.2c0.7-0.8,1.3-1.7,2-2.5c-3.5-0.3-7-0.7-10.5-1.5c-4.1-0.9-9-2.9-4.8-7.4c2.4-2.5,6.5-3.3,9.9-3.9
								c4.9-0.9,9.8-1.7,14.8-1.7c0.6,0,1.1,0,1.7,0c0.6-0.9,1.1-1.7,1.7-2.6c2.3-3.7,4.3-7.6,6.2-11.4c-3-0.4-6.2-0.3-8.1,0.2
								c-2.8,0.8-7.5,2.9-10,0.9c-3.6-2.9,0.2-5.6,2.8-7.1c3.6-2.1,7.6-2.1,11.6-2.9c1.4-0.3,2.8-0.5,4.1-0.6
								c2.6-0.3,4.8-1.8,5.8-4.2l0,0c2.3-5.1,5.3-11.7,10.4-14.7c0.5-0.3,1.1-0.6,1.7-0.9c2.2-0.9,4.4-1.2,6.8-1.4
								c-1.1-0.4-2.2-0.8-3.3-1.1c-9.7-2.8-20.5-3.5-30.4-3c0,0-0.1,0-0.1,0c-2.6,0.1-4.9,1.8-5.9,4.2c-0.3,0.7-0.6,1.4-0.9,2.1
								c-1.4,3-3.2,8.4-6.5,9.6c-3.9,1.4-4.1-5-3.8-7.6c0.2-2.2,1.4-4,2.4-5.9c-4.5,0.9-9.1,1.3-13.6,2.4c-4.7,1.1-9.4,2.4-14.1,3.7
								c-1,3.8-1.3,7.9-1.9,11.7c-1,6.3-0.4,13.9-5.3,18.8c-2.6,2.6-5,3.5-7.7,0.8c-2.6-2.5-2.9-5.7-2.6-9.1c0.5-5,2.5-9.1,4.4-13.6
								c0.7-1.6,1.4-3.1,2.2-4.6c-1.9,0.3-3.8,0.8-5.7,1.2c-4.2,1-9.4,0.8-13.2,3c-2.7,1.6-5,5.2-6.6,7.8
								C604.1,254.7,602.2,260.5,600.2,266.7z"/>
						</g>
						<g>
							<path class="st9" d="M593.9,317.4L593.9,317.4c-0.9,2,2,3.3,3,1.5c0,0,0.1-0.1,0.1-0.1c1.8-3.8,4.1-7.5,6.7-11
								c2.7-3.7,5.8-7.2,8.9-10.6c3.8-4.2,7.7-8.1,11.4-12c1.8-1.9,3.6-3.7,5.4-5.5c7.6-7.5,15.7-14.4,24.4-20.6
								c10.7-7.8,21.9-15.4,34-20.7c4.6-2,9.5-3.3,14.3-4.9c3.2-1.1,6.3-2.2,9.6-2.6c0.5-0.3,1.1-0.6,1.7-0.9
								c2.2-0.9,4.4-1.2,6.8-1.4c-1.1-0.4-2.2-0.8-3.3-1.1c-3.5-0.2-6.9,0.1-8.6,0.5c-13.9,3.1-27.1,9-39.2,16.5
								c-14.8,9.2-28.8,19.7-41.3,31.9c-0.9,0.9-1.9,1.8-2.8,2.7c-5,4.9-10.2,10-15.2,15.5c-1.6,1.8-3.2,3.6-4.7,5.5
								C600.7,305.6,596.7,311.4,593.9,317.4z"/>
						</g>
					</g>
					<path class="st10" d="M607.3,295.3c4.9-3.1,7.1,5.1,6.8,8.6c-0.5,6.9-6.3,20.2-8.6,23.5c1.3-0.6,2.6-1.1,4-1.6
						c2.5-0.9,5-1.8,7.4-2.7c-0.6-4-2.4-12.6,3.9-23.3c1.1-1.8,2.6-4.1,5-4.2c3.2-0.1,2.3,3.2,1.7,5.3c-1.1,3.5-5.5,15.4-7.3,21
						c5-1.8,9.9-3.7,14.9-5.5c0.3-7.9,0.6-17.5,6.3-23.7c3.7-4.1,6.1,1.2,5.9,4.6c-0.4,6.2-3.8,12.4-7.8,17.5c2.3-0.8,4.7-1.7,7-2.5
						c0.4-0.1,0.8-0.3,1.3-0.4c-0.2-3.9-0.8-7.6,0.4-11.5c1.2-3.8,4-6.7,7.4-8.7c1.5-0.9,3.2-2.1,5-1.7c2.6,0.6,0.6,2.9-0.4,4.4
						c-2.2,3.1-4.3,6.5-6.1,9.8c-1,1.8-2,3.5-3.2,5.2c-0.3,0.4-0.6,1.1-0.9,1.7c3.4-1.1,6.7-2.2,10.2-3.2c2-6.4,4.5-14.1,10.5-17.9
						c4-2.5,4.7,2.4,3.8,5.1c-1.5,4.3-4.8,8.1-8.5,11.1c1.5-0.4,3-0.8,4.5-1.2c4.5-6.4,10-14.4,18.1-16.4c5.1-1.3,4.2,4.3,2.2,7
						c-2,2.6-4.7,4.8-7.7,6.5c0.7-0.1,1.4-0.3,2.1-0.4c1.6-0.3,3.3-0.6,4.9-0.8c3.1-6,6.9-13.2,13.5-15.8c4.3-1.7,4.2,3.2,2.8,5.7
						c-2.3,4-6.3,7.3-10.6,9.6c2.5-0.2,5-0.2,7.5-0.3c3.2-4.4,7.2-9.7,12.9-11c3.7-0.9,3,3.1,1.6,5c-2.2,2.7-5.4,4.7-8.9,6.1
						c2.7,0,5.5,0,8.3,0c2.1-1.4,4.3-2.7,6.3-3.7c2.4-1.3,5.2-2.3,7.8-1.1c3.5,1.5,3.3,4.3,0.3,6.4c-1.4,1-2.9,1.4-4.5,1.5
						c1.3,0.7,2.4,1.7,3,2.8c0.6,1.1,0.6,2,0.2,2.7c-0.7,1.1-2.5,1.6-4.2,1.3c-3-0.4-5.6-2.5-8.2-4c-0.8-0.5-1.7-0.8-2.5-1.2
						c-1.2-0.5-2.4-0.9-3.6-1.4c-1.8,0-3.6,0-5.4,0c0,0,0,0,0,0c4.3,1.2,8.8,3.3,11.6,6.6c1.5,1.8,2.4,5.7-1.4,5
						c-6-1.2-10.3-6.8-13.8-11.3l0-0.3c-0.8,0-1.7,0-2.5,0c0,0-0.1,0-0.1,0c-4.3,0.1-8.5,0.4-12.8,1.1c0,0,0,0,0,0
						c1.5,0.5,2.9,1.1,4.1,2c2.3,1.5,4.4,5.5,0.1,5.9c-5.6,0.5-10.8-2.4-15.4-5.5c-5.5,1.3-11,2.8-16.4,4.4c5.3,0,11.1,0.9,15.3,3.7
						c2.4,1.6,4.8,5.9,0.1,6.3c-7.4,0.7-14.4-4.4-20-8.4l0-0.2c0,0,0,0,0,0c-2.5,0.8-5.1,1.6-7.6,2.5c-1.2,0.4-2.5,0.9-3.7,1.3
						c0,0,0,0,0,0c7.4-0.2,15.3,0.8,21.1,4.3c3.3,2,6.4,7.4,0,8.2c-10.2,1.2-19.6-5.2-27.2-10.2c0,0,0,0,0,0
						c-3.5,1.3-6.9,2.6-10.4,3.9c6.5,2,20.3,5.3,24.7,6.7c2,0.7,6.6,2.8,4.4,5.7c-1.3,1.6-5.5,1.9-7.4,1.7
						c-4.3-0.4-18.3-6.7-27-12.1c0,0,0,0,0,0c-2.5,0.9-4.9,1.8-7.4,2.6c-0.9,0.3-1.8,0.6-2.7,1c9.9,2.1,29,7.5,33,10.5
						c2,1.5,5,4.6,3.4,7.3c-1.6,2.8-6.2,1.1-8.8,0.7c-5.9-0.8-22.2-9.6-25-11.7c-2.2-1.6-4.1-3.7-6.1-5.4c0,0-0.1,0-0.1,0.1
						c-2,0.9-3.9,1.8-5.8,2.7c0.1,0.1,0.3,0.2,0.4,0.3c7.2,4.2,23,12.1,27.8,15.1c2.3,1.4,7.2,5.2,3.6,8c-1.9,1.6-7.1,0.7-9.3-0.1
						c-4.7-1.6-18-11.7-27.1-20.3c-0.2-0.2-0.3-0.3-0.5-0.5c-6.1,3.3-12,6.9-18.4,10.3c-1.9,1-3.7-1.9-1.8-2.9
						c9.1-4.9,17.5-10.6,26.8-14.8C601.1,316.2,605,296.7,607.3,295.3z"/>
					<g>
						<g>
							<path class="st11" d="M543.4,343.9c0.2,1.3,3.4,1.7,4.6,2.1c3.4,1.1,6.6,2.8,10,3.9c4.3,1.4,8.8,3.4,12.8,5.5
								c0.4,0.2,0.8,0.4,1.2,0.7c1.4,0.9,2.8,1.9,3.7,3.2c1.2,1.7,1.8,3.7,0.8,6c-1.6,3.9-8.3,6.3-11.8,7.8c-4.8,2-9.9,4-13.5,7.7
								c-2.6,2.7-3.7,6.5-3,10.3c1.1,5.6,4.6,8.2,9.5,10.4c6.2,2.8,13.1,2.3,19.7,2c6.6-0.3,13.8-1.6,20.2-3
								c5.4-1.2,10.9-3,16.3-4.7c-3.1-2.4-6-5-8.8-7.9c-3.2-3.3-6.5-8.3,0.1-9.8c3.7-0.9,8.1,1,11.5,2.5c5,2.2,10.1,4.5,14.6,7.6
								c0.5,0.4,1,0.7,1.6,1c1.1-0.4,2.1-0.9,3.2-1.4c4.4-2,8.7-4.3,12.8-6.7c-2.5-2.3-5.5-4.1-7.6-4.8c-3-1-8.7-1.9-9.8-5.3
								c-1.5-4.9,3.6-5,7-4.8c4.6,0.3,8.3,2.8,12.4,4.5c1.5,0.6,2.9,1.3,4.2,2c2.5,1.3,5.6,1.3,8-0.2l0,0c5.3-3.3,12.1-7.5,18.7-7.1
								c0.7,0,1.4,0.1,2.1,0.3c2.6,0.6,4.8,1.6,7.1,2.9c-0.8-1-1.6-2.1-2.4-3.1c0,0,0,0,0,0c-7.2-8.6-16.7-15.9-26.2-21.6
								c0,0-0.1,0-0.1-0.1c-2.5-1.5-5.6-1.3-8.1,0.2c-0.7,0.5-1.4,0.9-2.2,1.4c-3.1,1.9-8.1,5.7-11.9,4.8c-1.9-0.5-2.3-1.8-2-3.3
								c0.4-2.2,2.1-4.7,3.2-6c0.8-0.9,1.8-1.6,2.8-2.3c1-0.6,2.1-1.1,3.1-1.7c-0.6-0.2-1.2-0.5-1.8-0.8l0,0
								c-4.1-1.8-8.1-3.9-12.3-5.4c-0.7-0.3-1.4-0.5-2.2-0.8c-3.9-1.4-7.8-2.8-11.7-4.1c-0.5-0.2-0.9-0.3-1.4-0.5
								c-0.5,0.5-1.1,1-1.6,1.5c-0.7,0.7-1.4,1.4-2.1,2.2c-1,1.1-2,2.3-3,3.4c-0.8,0.9-1.5,1.7-2.2,2.5c-0.3,0.3-0.5,0.6-0.8,0.9
								c-1.4,1.6-2.8,3.4-4.3,5.2c-3.1,3.7-6.6,7.1-11.5,8.1c-4,0.8-6.8,0.1-7.6-4c-0.2-0.9-0.2-1.7-0.2-2.5
								c0.1-1.8,0.7-3.4,1.6-4.9c0.5-0.9,1.1-1.7,1.8-2.5c3.5-4.3,8-6.8,12.5-9.8c0.9-0.6,1.9-1.2,2.8-1.7c0.7-0.4,1.4-0.8,2.1-1.1
								c-0.7-0.3-1.5-0.6-2.3-0.9c-1.2-0.5-2.5-1-3.7-1.5c-0.8-0.3-1.7-0.7-2.6-1.1c-1-0.5-2-1-3-1.5c-2.7-1.4-5.6-2.6-8.4-2.7
								c-3.5-0.2-7.8,1.7-10.9,3.1c-6.7,2.9-12.1,7.1-17.8,11.6c-3.7,3-7.6,6.1-10.4,9.9C545.7,340.1,543.2,342.7,543.4,343.9z"/>
						</g>
						<g>
							<path class="st11" d="M521.6,375.3c13.3-8,30.8-10.9,45.7-14.3c2.8-0.6,5.6-1.2,8.4-1.7c11.6-2.2,23.4-3.5,35.2-3.9
								c4-0.1,8-0.2,12.1-0.3c4,0,8,0,12,0.2c6.8,0.3,13.5,0.9,20.1,2.1c5.5,1,10.8,2.9,16.2,4.4c3.6,1,7.2,1.9,10.5,3.6
								c0.7,0,1.4,0.1,2.1,0.3c2.6,0.6,4.8,1.6,7.1,2.9c-0.8-1-1.6-2.1-2.4-3.1c0,0,0,0,0,0c-3.1-2.3-6.4-4.1-8.2-4.8
								c-14.6-5.7-30.2-8.5-45.8-9.1c-0.2,0-0.4,0-0.6,0c-5.7-0.2-11.3-0.3-17-0.2c-13.7,0.3-27.3,1.5-40.8,4
								c-1.4,0.3-2.8,0.5-4.3,0.8c-17.5,3.2-37.4,7-52.5,16C517.5,373.4,519.5,376.5,521.6,375.3z"/>
						</g>
					</g>
				</g>
			</g>
			<g>
				<g>
					<path class="st12" d="M520.9,414.5l-101.4-39.3c-8.3-3.2-11.8-12.3-7.9-20.3l112-228.7c3.9-8,13.8-11.9,22.1-8.7l101.4,39.3
						c8.3,3.2,11.8,12.3,7.9,20.3L543,405.8C539.1,413.8,529.2,417.7,520.9,414.5z"/>
					
						<linearGradient id="SVGID_2_" gradientUnits="userSpaceOnUse" x1="589.8857" y1="203.1262" x2="364.6666" y2="428.3453" gradientTransform="matrix(0.9991 -4.170000e-02 4.170000e-02 0.9991 -9.66 15.5567)">
						<stop  offset="3.886220e-03" style="stop-color:#B2DEE8"/>
						<stop  offset="8.833892e-03" style="stop-color:#B3DEE8"/>
						<stop  offset="0.2452" style="stop-color:#CDE4ED"/>
						<stop  offset="0.4865" style="stop-color:#E0E9F1"/>
						<stop  offset="0.7349" style="stop-color:#EBEBF3"/>
						<stop  offset="1" style="stop-color:#EFECF4"/>
					</linearGradient>
					<path class="st13" d="M512.5,411.2L411,371.9c-8.3-3.2-11.8-12.3-7.9-20.3l112-228.7c3.9-8,13.8-11.9,22.1-8.7l101.4,39.3
						c8.3,3.2,11.8,12.3,7.9,20.3l-112,228.7C530.6,410.5,520.7,414.4,512.5,411.2z"/>
					<g>
						<path class="st5" d="M640.4,174.7l-28.8,58.9l-34.3,70.1l-20,40.8l-5.9,12l-13.8,28.1c-0.4,0.8-1.5,1.3-2.3,0.9l-6-2.3
							l-0.5-0.2l-34-13.2l-0.4-0.2l-77.5-30c-0.9-0.3-1.3-1.3-0.8-2.2l37.3-76.2l33.1-67.6l27.5-56.1l4.9-10
							c0.4-0.8,1.5-1.3,2.3-0.9l56.5,21.9l62,24C640.4,172.9,640.8,173.8,640.4,174.7z"/>
						<path class="st5" d="M611.5,233.5l-34.3,70.1l-63.5-166l4.9-10c0.4-0.8,1.5-1.3,2.3-0.9l56.5,21.9L611.5,233.5z"/>
						<path class="st5" d="M551.3,356.4l-13.8,28.1c-0.4,0.8-1.5,1.3-2.3,0.9l-6-2.3l-0.5-0.2l-34-13.2l-41.5-108.5l33.1-67.6
							L551.3,356.4z"/>
					</g>
					<path class="st14" d="M609.8,151.2l-51-19.7c-0.7-0.3-0.9-1-0.6-1.6l0,0c0.3-0.6,1.1-0.9,1.8-0.7l51,19.7
						c0.7,0.3,0.9,1,0.6,1.6l0,0C611.3,151.1,610.5,151.4,609.8,151.2z"/>
					
						<ellipse transform="matrix(0.9379 -0.347 0.347 0.9379 -100.9676 186.3006)" class="st9" cx="469.8" cy="375.1" rx="11.5" ry="10.6"/>
				</g>
				<g>
					<g>
						<g>
							<g>
								<path class="st15" d="M555.2,268.9c-1.2-3.5-2.5-6.9-4.1-10.2c-2-4.2-3.7-8.6-5.7-12.8c-2.1-4.3-4-8.5-5.5-13.1
									c-1.3-3.9-3.2-7.9-4.1-12c-0.7-3.5-1.9-6.8-2.8-10.3c-0.5-2.2-1.1-4.4-1.9-6.4l-27.7,10.7c-2.1,6.2-2.1,13.5-1.6,20.1
									c0.7,9.2,1.3,18.7-0.6,27.8c-1.3,6.4-5.2,12.2-8.2,17.5c1.1,0.8,2.8,0.8,4,1.1c1.7,0.4,3.4,0.9,5.1,1.4
									c4.4,1.3,8.7,1.8,13.2,2.6c7.5,1.4,15,2.9,22.5,4.3c4.3,0.8,8.7,1.4,12.9,2.6c2,0.6,3.8,1.7,5.9,1.6c0.1-3.7-0.1-7.4,0.1-11
									C557.1,277.9,556.7,273.5,555.2,268.9z"/>
							</g>
							<path class="st4" d="M506.9,218.6c0-0.3-0.5-0.3-0.5,0c-0.4,8.8,2.6,17.2,3.1,26c0.6,9.7-1.2,19.3-3.8,28.6
								c-0.1,0.3,0.4,0.4,0.5,0.1c2.5-8.8,4.2-17.7,3.9-26.9C509.9,237.1,506.4,228,506.9,218.6z"/>
							<path class="st4" d="M513.1,222c-0.1-0.3-0.6-0.3-0.5,0c2.9,17.8,3.3,35.8,1.4,53.7c0,0.3,0.5,0.4,0.5,0.1
								C516.5,257.9,516,239.9,513.1,222z"/>
							<path class="st4" d="M517.9,215.8c-0.1-0.3-0.5-0.2-0.5,0.2c4.4,22.3,11.9,44.1,11.8,67c0,0.3,0.5,0.3,0.5,0
								C529.9,259.9,522.4,238.1,517.9,215.8z"/>
							<path class="st4" d="M534,255.2c-3-10.2-4.2-20.9-7.1-31.2c-0.1-0.3-0.6-0.2-0.5,0.2c2.7,9.7,4,19.7,6.6,29.4
								c2.7,10.1,8.1,19.5,7.8,30.2c0,0.3,0.5,0.3,0.5,0C541.6,273.6,536.7,264.7,534,255.2z"/>
							<path class="st4" d="M539.9,249.2c-0.1-0.3-0.6-0.1-0.5,0.2c5,10.8,8.2,22.1,9.5,33.9c0,0.3,0.5,0.3,0.5,0
								C548.1,271.4,544.9,260,539.9,249.2z"/>
							<path class="st4" d="M528.6,211.6c-0.1-0.3-0.5-0.2-0.5,0.2c1.7,8.3,3.9,16.4,6.5,24.4c0.1,0.3,0.6,0.2,0.5-0.2
								C532.4,228,530.3,219.9,528.6,211.6z"/>
						</g>
						<g>
							<path class="st12" d="M524.1,247.5L524.1,247.5c1.9,3.4,1.3,7.7-1.4,10.4l-29.2,28.9c-3.1,3.1-8.4,2.5-10.7-1.3L465,255.6
								l8.8-2.6l14,17.3l22.4-24.5C514.2,241.5,521.3,242.3,524.1,247.5z"/>
							<g>
								<path class="st6" d="M468,257.5c0-0.1,0-0.2,0-0.3c0-0.2,0-0.4,0-0.6c0-0.1-0.1-0.2-0.1-0.4c-0.1-5.1,0.4-10,1.5-14.9
									c0.2-1.5,0.4-2.9,1-4c0.1-0.3,0.4-0.4,0.7-0.4c0.6,0,1,0.2,1.7,0.3c0.2,0.1,0.4,0.2,0.5,0.4c0.2,0.1,0.3,0.3,0.3,0.5
									c0.7,4.9,5,19.2-0.4,23.3c-0.6,0.7-1.4,1.1-2.6,1C468.3,262.2,467.8,259.6,468,257.5z"/>
								<path class="st4" d="M470.9,242.7c0-0.3,0.5-0.3,0.5,0c0.5,5.2,0.5,10.4-0.1,15.6c0,0.3-0.5,0.3-0.5,0
									C471.3,253.1,471.3,247.9,470.9,242.7z"/>
								<path class="st16" d="M468.3,255.9l-2.8,0.4l-3.5-5.9c0,0-2.4-3.9,2.4-7c2.8-1.8,6.4-2.2,9.6-1.2l2.6,0.8c0,0,1.8,2.6-6,1.8
									c0,0,6.1-0.2,6.2,2.2c0,0,1,2.7-8.1,0.2c0,0,7.5,0.6,8,3.6c0,0,0.1,2.6-8.7-0.6C468.2,250.3,468.2,251.4,468.3,255.9z"/>
								<g>
									<path class="st17" d="M471.2,227.6c-0.6-0.1-34.5-17.3-34.5-17.3l-0.3,41.6l34.4-11.7C476.1,240.7,476.8,228.1,471.2,227.6
										z"/>
									<path class="st6" d="M430.7,231c-0.1,11.6,2.2,21,5.2,21.1c2.3,0,4.4-5.9,5.1-14.1c0.2-2.1,0.3-4.4,0.3-6.8
										c0-3.1-0.1-6-0.4-8.7c-0.8-7.3-2.6-12.3-4.8-12.4C433.2,210,430.8,219.4,430.7,231z"/>
									<path class="st17" d="M435.1,230.1c0,3.9,2.5,7.2,5.8,7.8c0.2-2.1,0.3-4.4,0.3-6.8c0-3.1-0.1-6-0.4-8.7
										C437.7,223,435.2,226.2,435.1,230.1z"/>
									<path class="st6" d="M470.3,240.6l3.5,0c3.7,0,6.7-2.9,6.7-6.6l0,0c0-3.7-2.9-6.7-6.6-6.7l-3.5,0
										C474.4,232,474,236.4,470.3,240.6z"/>
									<g>
										<path class="st4" d="M443.9,215.4c8.4,4.1,16.7,8.2,25,12.4c0.3,0.1,0,0.6-0.3,0.4c-8.3-4.2-16.6-8.3-25-12.4
											C443.3,215.7,443.6,215.2,443.9,215.4z"/>
										<path class="st4" d="M438,249.1c4.7-11.1,3.7-23.9,1-35.4c-0.1-0.3,0.4-0.4,0.5-0.1c2.7,11.6,3.7,24.4-1,35.7
											C438.3,249.5,437.8,249.4,438,249.1z"/>
										<path class="st4" d="M435.7,213.1c0.1-0.3,0.6,0,0.4,0.3c-1.1,2.3-1.7,4.7-1.8,7.3c0,0.3-0.5,0.3-0.5,0
											C433.9,218,434.6,215.5,435.7,213.1z"/>
										<path class="st4" d="M433.5,216.4c0.1-0.3,0.6-0.2,0.5,0.1c-0.8,3.1-1.2,6.2-1.2,9.4c0,0.3-0.5,0.3-0.5,0
											C432.3,222.7,432.7,219.5,433.5,216.4z"/>
										<path class="st4" d="M438.6,225.7c0.2-0.2,0.6,0.1,0.4,0.4c-1.8,1.6-1.8,5.7-0.7,7.6c0.2,0.3-0.3,0.5-0.4,0.3
											C436.6,231.8,436.6,227.5,438.6,225.7z"/>
										<path class="st4" d="M470,240.6c3.8-2.8,4.5-7.7,1.7-11.5c-0.2-0.3,0.2-0.5,0.4-0.3c2.9,4,2.1,9.2-1.9,12.2
											C469.9,241.3,469.7,240.8,470,240.6z"/>
									</g>
								</g>
								<path class="st4" d="M467.3,243.5c2.2,0.1,4.2,0.7,6.3,1.3c0.3,0.1,0.2,0.6-0.1,0.5c-2-0.6-4-1.2-6.1-1.3
									C467,244,467,243.5,467.3,243.5z"/>
								<path class="st4" d="M467.7,246.3c2,0.4,4,1,6,1.7c0.3,0.1,0.2,0.6-0.1,0.5c-2-0.7-4-1.3-6-1.7
									C467.2,246.7,467.4,246.2,467.7,246.3z"/>
								<path class="st4" d="M464,247.9c1.3,0.8,2.7,1.5,4.1,2.2c0,0,0,0,0,0c0.2,0,0.3,0,0.3,0.2c-0.1,0.6-0.1,1.2-0.2,1.8
									c0,0.5,0,1,0,1.5c0,0.3-0.4,0.3-0.5,0.1c0-0.1-0.1-0.3-0.1-0.4c0,0,0,0,0,0c-0.4-0.9-0.7-1.9-0.9-2.9c0-0.1,0-0.2,0.1-0.3
									c-1.1-0.5-2.1-1.1-3.2-1.7C463.5,248.1,463.7,247.7,464,247.9z"/>
							</g>
						</g>
						<path class="st18" d="M557.2,344.4l-19.6,40.1c-0.4,0.8-1.5,1.3-2.3,0.9l-6-2.3l-0.5-0.2l-34.5-13.3
							c1.4-6.8,5.5-25.3,12.9-41.5l42.4-2.9C549.6,325.1,554.4,335.2,557.2,344.4z"/>
						<g>
							<path class="st12" d="M507.1,328.1c0,0,4.4-19.6,1.7-25.2l-8.2-17.1c-2.8-5.8-3.3-12.5-1.6-18.6c0.6-2.1,1.4-4.1,2.5-6
								l7.4-12.7c2-3.5,5-5.9,8.5-7c1.3-0.4,2.7-0.6,4.1-0.6l3.3,0c1.8,0,3.6,0.4,5.3,1.1c0.8,0.3,1.6,0.8,2.3,1.3
								c3,2,5.5,4.6,7.5,7.7c1.7,2.7,2.6,6.9,2.9,11c0.5,5.4,0.1,10.8-1,16c-1.4,6.8-1.4,13.8-0.5,20.7c0.7,5.5,1.8,10.9,3.6,16.1
								c0.9,2.7,2,5.3,3.3,7.8c0.5,0.9,1.6,2,1,2.9c-0.5,0.9-2.8,1.2-3.7,1.5c-0.9,0.2-1.4,0.4-2.4,0.6c-9.1,1.6-18.4,2.4-27.6,2.4
								c-1.2,0-2.4-0.1-3.7-0.2c-1.2-0.1-3.4-0.1-4.3-1C507.4,328.6,507.1,328.4,507.1,328.1z"/>
						</g>
						<g>
							<path class="st4" d="M523.1,252.1c-1.4,1.5-2.8,3.1-4.5,4.3c-1.4,1-5,3.2-6.6,1.7c-0.2-0.2-0.6,0.1-0.4,0.4
								c1.3,1.2,3.7,0.2,5-0.4c2.7-1.2,4.8-3.5,6.8-5.7C523.7,252.2,523.3,251.9,523.1,252.1z"/>
							<path class="st4" d="M513.1,247.4c-1.4,2.9-2.7,5.9-2.7,9.2c0,0.3,0.5,0.3,0.5,0c0-3.2,1.3-6.1,2.6-8.9
								C513.7,247.3,513.3,247.1,513.1,247.4z"/>
							<path class="st4" d="M529.7,243.7c-0.1-0.3-0.6-0.2-0.5,0.1c0.4,1.8-0.7,3.2-1.8,4.5c-0.2,0.2,0.1,0.6,0.4,0.4
								C529,247.3,530.1,245.7,529.7,243.7z"/>
						</g>
						<path class="st4" d="M517,285.6c-2.4,0.3-4.6-0.2-6.7-1.3c-1.5-0.8-4.6-2.6-4.6-4.6c0-0.5-0.7-0.5-0.7,0c0,2.2,2.9,4,4.6,5
							c2.3,1.4,4.9,2,7.6,1.6C517.6,286.2,517.4,285.5,517,285.6z"/>
						<g>
							<path class="st16" d="M492.8,313.6l-11.3-6.2l-7.7,6.2c-1.5,1.1-3.1,2.4-4.6,3.6l-1.5-0.3c-2.2-0.5-4.5-0.5-6.8-0.1l-5.3,1
								c-0.9,0.3-1.1,1.5,0.1,1.6l4.2-0.3l-3,1.4c-1.7,0.8-3.3,1.8-4.8,2.8l-2.4,1.7c-0.6,0.6-0.1,1.8,0.9,1.4l6.8-3.5l-4,2.5
								l-4.1,2.9c-0.9,0.8,0.1,1.9,0.8,1.4l3.7-2.3l4.7-2.4l-3,2.7c-0.6,0.6-1.2,1.2-1.7,2l-1.6,2.5c-0.3,1.4,0.4,1.4,1.4,1.1
								l1.5-2.1c0.6-0.8,1.3-1.5,2.1-2.1l3.2-2.2l-4,6.3c-0.4,1,1.1,1.7,1.5,0.7c1.4-2.6,4.6-5.8,4.6-5.8c3.1-0.3,6.1-1.5,8.7-3.4
								l3.4-2.7L492.8,313.6z"/>
							<path class="st12" d="M521.1,257.6l-12.8,25.7l-36.8,32.6l1.4,8.6l29.2-15.8c10.7-5.8,19.9-14.2,26.8-24.5l9.5-14.2
								c3.3-4.9,4.4-11.2,2.7-16.8c-2.2-7.1-6.8-8.5-14.5-2.5C524.3,252.6,522.4,254.9,521.1,257.6z"/>
						</g>
						<g>
							<path class="st19" d="M457.2,331.7l-65.1-0.5c-1.4,0-2.7-1-2.9-2.4l-7.8-38.7c-0.4-1.9,1.1-3.6,3-3.6l65.1,0.5
								c1.4,0,2.7,1,2.9,2.4l7.8,38.7C460.5,329.9,459.1,331.7,457.2,331.7z"/>
							<path class="st20" d="M413.6,310c0,2.9,2.6,5.4,5.8,5.4c3.2,0,5.8-2.3,5.9-5.3c0-2.9-2.6-5.4-5.8-5.4
								C416.2,304.7,413.6,307,413.6,310z"/>
							
								<rect x="396.4" y="331.5" transform="matrix(1 7.400590e-03 -7.400590e-03 1 2.479 -3.1522)" class="st20" width="61.6" height="3.9"/>
							
								<rect x="458" y="331.8" transform="matrix(1 7.400690e-03 -7.400690e-03 1 2.4829 -3.4989)" class="st19" width="32.1" height="3.9"/>
							<g>
								<path class="st4" d="M447.1,289.1c-10.9-0.2-21.9-0.2-32.8,0.1c-0.3,0-0.3,0.5,0,0.5c10.9-0.3,21.9-0.3,32.8-0.1
									C447.5,289.6,447.4,289.1,447.1,289.1z"/>
								<path class="st4" d="M450,289.9c-0.1-0.3-0.5-0.2-0.5,0.2c2.4,13.2,4.7,26.4,6.9,39.6c0.1,0.3,0.6,0.3,0.5,0
									C454.7,316.4,452.4,303.2,450,289.9z"/>
								<path class="st4" d="M418.8,304.4c-0.3,0.1-0.2,0.5,0.2,0.5c7.3-1.7,7.9,11.2,0.3,10.3c-0.3,0-0.4,0.5-0.1,0.5
									c3.4,0.4,6.4-2.3,6.2-5.8C425.2,306.2,422.4,303.6,418.8,304.4z"/>
								<path class="st4" d="M488.3,334.4c-9.4-0.1-18.8-0.1-28.2-0.2c-0.3,0-0.3,0.5,0,0.5c9.4,0.1,18.8,0.1,28.2,0.2
									C488.6,334.9,488.6,334.4,488.3,334.4z"/>
							</g>
						</g>
						<path class="st16" d="M528.2,244.6c0.3,1.5-6.6,7.5-10.3,10.6c-0.9,0.7-1.9,1.3-3,1.5c-6.4,1,0.6-8.3,0-11.7l-0.3-2l-0.6-3.4
							l-1.8-6.4l10.4-7.3l1.8-2.5l0.2,1.2l0.8,4.6l1.6,8.8L528.2,244.6z"/>
						<path class="st21" d="M525.4,229.2c-1,6.6-5.3,11.8-10.8,13.7l-0.6-3.4l-1.8-6.4l10.4-7.3l1.8-2.5l0.2,1.2L525.4,229.2z"/>
						<g>
							<g>
								<g>
									<path class="st16" d="M533.4,221.2c0.7-2.9-0.2-6.7-2.6-6.8c-0.7-0.1-1.6,0.2-2.4,0.7c-1.9-8.1-8.1-17.2-14.2-17.6
										c-8-0.6-14.9,3.3-16,23.6c-0.4,8,5.1,16.4,13,17.7c5.9,0.9,12.8-5.3,16-11.9C529.7,226.1,532.5,224.9,533.4,221.2z"/>
									<g>
										<g>
											<g>
												<path class="st4" d="M507.8,230.5c-0.5,0-0.8,0-0.8,0c-0.3,0-0.5-0.3-0.4-0.5c0-0.3,0.3-0.5,0.6-0.4
													c0.2,0,6.2,0.6,7.6-5.1c0.1-0.3,0.3-0.4,0.6-0.4c0.3,0.1,0.4,0.3,0.4,0.6C514.4,229.9,509.7,230.5,507.8,230.5z"/>
											</g>
										</g>
										<path class="st4" d="M514.3,218.6c0.1,0.9-0.6,1.6-1.4,1.7c-0.8,0.1-1.5-0.6-1.6-1.5c-0.1-0.9,0.6-1.6,1.4-1.7
											C513.6,217.1,514.3,217.7,514.3,218.6z"/>
										<path class="st4" d="M504.6,219c0.1,0.9-0.6,1.6-1.4,1.7c-0.8,0.1-1.5-0.6-1.6-1.5c-0.1-0.9,0.6-1.6,1.4-1.7
											C503.9,217.5,504.5,218.1,504.6,219z"/>
										<g>
											<g>
												<path class="st4" d="M516.7,215.7c-0.2,0-0.4-0.1-0.5-0.2c-1.6-2.6-4.1-1.4-4.2-1.3c-0.2,0.1-0.5,0-0.7-0.2
													c-0.1-0.2,0-0.5,0.2-0.7c1.2-0.6,3.9-1.1,5.6,1.7c0.1,0.2,0.1,0.5-0.2,0.7C516.9,215.7,516.8,215.7,516.7,215.7z"/>
											</g>
										</g>
										<g>
											<g>
												<path class="st4" d="M504.9,214.5c-0.1,0.1-0.3,0.2-0.4,0.1c-2.5-0.8-3.4,1.4-3.4,1.5c-0.1,0.2-0.3,0.3-0.5,0.2
													c-0.2-0.1-0.3-0.3-0.2-0.5c0.4-1,1.9-2.8,4.5-1.9c0.2,0.1,0.3,0.3,0.3,0.5C505,214.5,504.9,214.5,504.9,214.5z"/>
											</g>
										</g>
									</g>
								</g>
							</g>
							<g>
								<path class="st4" d="M507.4,226.3c0.2,0,0.4-0.3,0.4-0.5c0-0.2-0.3-0.4-0.5-0.4c0,0-0.9,0.1-1.2-0.3
									c-0.1-0.2-0.3-0.8,0.7-2.5c0.1-0.2,0.1-0.5-0.2-0.6c-0.2-0.1-0.5-0.1-0.6,0.2c-1,1.6-1.2,2.8-0.7,3.5
									C505.9,226.5,507.3,226.3,507.4,226.3L507.4,226.3z"/>
							</g>
						</g>
						<path class="st4" d="M529.3,383.1l-0.5-0.2c-2.1-9.4-7.2-17.8-11-26.7c-0.1-0.3,0.3-0.5,0.4-0.2
							C522,365,527.2,373.5,529.3,383.1z"/>
						<path class="st4" d="M541.3,325.7c-9.1,1.4-18.2,1.9-27.4,1.5c-0.3,0-0.3,0.5,0,0.5c9.2,0.4,18.4-0.1,27.5-1.5
							C541.7,326.1,541.6,325.6,541.3,325.7z"/>
						<path class="st4" d="M542.7,322.4c-6.1,1.7-12.2,2.5-18.5,2.5c-0.3,0-0.3,0.5,0,0.5c6.3,0,12.5-0.8,18.6-2.5
							C543.1,322.8,543,322.3,542.7,322.4z"/>
						<path class="st4" d="M474.6,316.1c0-0.3-0.5-0.3-0.5,0c0.1,1.9,0.4,3.8,0.9,5.7c0.1,0.3,0.6,0.2,0.5-0.1
							C475,319.8,474.7,318,474.6,316.1z"/>
						<path class="st4" d="M476.1,314.8l0,5.3c0,0.3,0.5,0.3,0.5,0l0-5.3C476.6,314.4,476.1,314.4,476.1,314.8z"/>
						<path class="st4" d="M502.3,265.3c-3.7,5.1-4.9,11.3-3.2,17.3c0.1,0.3,0.6,0.2,0.5-0.2c-1.7-5.9-0.6-11.9,3.1-16.8
							C502.8,265.4,502.5,265.1,502.3,265.3z"/>
						<path class="st4" d="M530.2,272.5c-2.9,12.1-11.8,21.6-19.4,31.2c-0.2,0.3,0.2,0.6,0.4,0.3c7.6-9.6,16.5-19.2,19.5-31.4
							C530.8,272.2,530.3,272.2,530.2,272.5z"/>
						<path class="st4" d="M523.1,256.9c-5.7,10.3-11.7,20.5-18,30.5c-0.1,0.2,0.2,0.4,0.4,0.2c6.3-10,12.3-20.2,18-30.5
							C523.6,256.8,523.2,256.7,523.1,256.9z"/>
						<g>
							<g>
								<path class="st15" d="M531.2,203.4c0,0,0-0.1-0.1-0.1c-3-6.2-11.8-9.3-18.3-8.5c-12,1.6-17.6,14.1-17.3,25
									c0.1,2.3,0.5,4.6,0.5,6.9c0-4.4,1.8-8.7,4.9-11.8c1.9-1.9,4.3-3.3,6.9-4c2.3-0.7,12.9-1.8,12.9-1.8s-0.6,2.2-1,3.1
									c0,0,0,0,0,0c-1.2,2.6,0.1,5.3,1.2,7.7c0.5,1.1,2.2,5.2,0.2,5.7C530.4,223.2,535.2,212,531.2,203.4z"/>
							</g>
							<path class="st4" d="M521,202.5c-9,2.7-20,5.7-24.6,14.7c-0.1,0.3,0.3,0.5,0.4,0.2c4.5-8.9,15.5-11.8,24.3-14.5
								C521.4,202.9,521.3,202.4,521,202.5z"/>
							<path class="st4" d="M524.5,206.6c-2.1,5.2-1.8,9.6,0,14.9c0.1,0.3,0.6,0.2,0.5-0.2c-1.8-5.1-2.1-9.4-0.1-14.5
								C525.1,206.5,524.7,206.3,524.5,206.6z"/>
							<path class="st4" d="M526.5,208.1c0.1,3-0.2,5.9-0.9,8.8c-0.1,0.3,0.4,0.4,0.5,0.1c0.7-2.9,1-5.9,0.9-8.9
								C527,207.8,526.5,207.8,526.5,208.1z"/>
							<path class="st4" d="M528,202.8c-0.1-0.3-0.6-0.2-0.5,0.2c1.3,4.9,2.5,9.9-0.1,14.7c-0.2,0.3,0.3,0.5,0.4,0.2
								C530.5,213,529.4,207.8,528,202.8z"/>
							<path class="st4" d="M519,205.4c-2.8,0.6-5.6,1.5-8.3,2.6c-0.3,0.1-0.1,0.6,0.2,0.5c2.7-1.1,5.4-1.9,8.3-2.6
								C519.5,205.8,519.3,205.3,519,205.4z"/>
							<path class="st4" d="M518.7,196.6c-4.6-0.2-9,1-12.7,3.9c-4,3.1-5.6,7.4-8.1,11.6c-0.2,0.3,0.3,0.5,0.4,0.2
								c2.3-3.9,3.9-8,7.5-11c3.7-3,8.2-4.4,12.9-4.2C519,197.1,519,196.6,518.7,196.6z"/>
							<path class="st4" d="M525,201.2c-5.6-4-15.8-0.8-19.6,4.5c-0.2,0.3,0.3,0.5,0.4,0.2c3.4-4.9,13.5-8.2,18.8-4.4
								C525,201.7,525.3,201.4,525,201.2z"/>
						</g>
					</g>
				</g>
				<g>
					<g>
						
							<linearGradient id="SVGID_3_" gradientUnits="userSpaceOnUse" x1="511.2795" y1="310.6296" x2="511.7841" y2="310.6296" gradientTransform="matrix(0.9991 -4.168700e-02 4.168700e-02 0.9991 -9.5025 15.9122)">
							<stop  offset="0" style="stop-color:#EFECF4"/>
							<stop  offset="1" style="stop-color:#E38C89"/>
						</linearGradient>
						<path class="st22" d="M514.8,304.7l-0.5,0.4c0,0,0,0,0.1,0C514.5,305,514.6,304.9,514.8,304.7z"/>
					</g>
				</g>
			</g>
		</g>
	</g>
	<g>
		<path class="st3" d="M526.3,149.4c-1.3-2.5-3.3-4.4-6.1-5.6c-0.8-0.3-0.8-1.5,0-1.9c2.5-1.1,4.4-3,5.4-5.7
			c0.3-0.8,1.5-0.9,1.9-0.1c1.2,2.4,3.4,4,6.4,5.1c0.9,0.3,0.9,1.5,0.1,1.9c-2.8,1.3-4.8,3.4-5.8,6.2
			C527.9,150.1,526.7,150.2,526.3,149.4z"/>
		<path class="st3" d="M536.1,158.2c-0.7-1.4-1.9-2.5-3.4-3.1c-0.5-0.2-0.5-0.9,0-1.1c1.4-0.6,2.4-1.7,3-3.2
			c0.2-0.5,0.8-0.5,1.1-0.1c0.6,1.3,1.9,2.2,3.6,2.8c0.5,0.2,0.5,0.8,0.1,1.1c-1.6,0.7-2.7,1.9-3.3,3.4
			C537,158.6,536.4,158.7,536.1,158.2z"/>
	</g>
	<g>
		<path class="st3" d="M235.8,152.5c1.1-2.6,2.9-4.7,5.6-6.1c0.8-0.4,0.7-1.6-0.1-1.9c-2.6-0.9-4.6-2.7-5.9-5.2
			c-0.4-0.8-1.6-0.8-1.9,0c-1,2.5-3,4.3-6,5.6c-0.8,0.4-0.8,1.6,0,1.9c2.9,1.1,5,3,6.3,5.7C234.3,153.3,235.5,153.3,235.8,152.5z"/>
		<path class="st3" d="M226.8,162.1c0.6-1.5,1.6-2.6,3.2-3.4c0.4-0.2,0.4-0.9-0.1-1.1c-1.5-0.5-2.6-1.5-3.3-2.9
			c-0.2-0.4-0.9-0.4-1.1,0c-0.5,1.4-1.7,2.4-3.3,3.1c-0.5,0.2-0.5,0.9,0,1.1c1.6,0.6,2.8,1.7,3.5,3.2
			C226,162.6,226.6,162.6,226.8,162.1z"/>
	</g>
	<g>
		<g>
			<g>
				<path class="st3" d="M572.7,179.8c1.7,0,3.2-1.5,3-3.3c-0.2-1.5-1.5-2.6-3-2.6l-11.1-0.1c0.8-2.4,1.1-4.9,1-7.4
					c-0.3-3.6-1.4-5.5-3.5-5.9c-1.2-0.2-2.3,0.8-2.3,2c0,3.5-0.9,6.9-2.5,10l-2,3.9c-0.7,1.4-2,2.6-3.5,3.2l-0.1,14.6l0,0
					c2.5,0.9,5.1,1.4,7.8,1.4l12,0.1c1.6,0,3-1.3,3-3l0,0c0-0.8-0.3-1.5-0.8-2c1.6,0,2.9-1.3,2.9-2.9c0-0.8-0.3-1.6-0.9-2.1l0,0
					c1.6,0,3-1.3,3-3l0,0C575.6,181.2,574.3,179.8,572.7,179.8z"/>
				<path class="st10" d="M546.8,196.2l-6,0c-1.3,0-2.4-1.1-2.4-2.4l0.1-14c0-1.3,1.1-2.4,2.4-2.4l6,0c1.3,0,2.4,1.1,2.4,2.4
					l-0.1,14C549.2,195.1,548.1,196.2,546.8,196.2z"/>
			</g>
		</g>
		<path class="st4" d="M548,178.4c-1.4-0.3-2.8-0.3-4.2,0c-0.8,0.2-0.4,1.4,0.4,1.2c0.9-0.2,1.8-0.2,2.8-0.1c0,2.8,0,5.6,0,8.4
			c0,0.8,1.3,0.8,1.3-0.1c0-2.8,0-5.6,0-8.4C548.6,179.2,548.6,178.5,548,178.4z"/>
		<path class="st4" d="M560.2,162c-0.5-0.7-1.5,0-1.1,0.7c2.4,3.8,1.7,8.3,0.1,12.3c-0.3,0.8,0.8,1.4,1.2,0.6
			C562.2,171.2,562.9,166.2,560.2,162z"/>
		<path class="st4" d="M572.8,178.2c-2.2-0.1-4.4-0.1-6.6-0.1c-0.8,0-0.8,1.3,0.1,1.3c2.2,0,4.4,0,6.6,0.1
			C573.7,179.5,573.6,178.2,572.8,178.2z"/>
		<path class="st4" d="M571.5,184.4l-4.6,0.3c-0.8,0.1-0.8,1.4,0.1,1.3l4.6-0.3C572.5,185.6,572.4,184.3,571.5,184.4z"/>
		<path class="st4" d="M570.8,190.2l-2.5,0.2c-0.8,0.1-0.8,1.4,0.1,1.3l2.5-0.2C571.7,191.4,571.6,190.1,570.8,190.2z"/>
	</g>
	<g>
		<ellipse class="st8" cx="258.9" cy="404.1" rx="80.5" ry="10"/>
		<g>
			<g>
				<g>
					<g>
						<g>
							<path class="st10" d="M160.6,272.8c0.9,4.2,1.7,8.6,1.5,12.9c-0.1,1,0.2,4.2-0.7,5c-0.9,0.8-3.3-0.8-4.4-1.2
								c-3-1.2-6.2-1.8-9.2-3c-3.8-1.5-8-2.7-12-3.6c-0.4-0.1-0.8-0.2-1.2-0.2c-1.5-0.2-3-0.3-4.4,0.1c-1.8,0.4-3.3,1.5-4,3.7
								c-1.1,3.6,2.1,9.1,3.7,12.2c0.1,0.2,0.3,0.5,0.4,0.8c2.1,3.9,4.2,8,4.5,12.4c0.2,2.2-0.4,4.3-1.5,6.1c-0.6,1-1.4,1.9-2.3,2.7
								c-0.9,0.7-1.8,1.3-2.7,1.7c-2,0.9-4.1,1.1-6.3,0.8c-1.2-0.1-2.3-0.4-3.6-0.8c-0.6-0.2-1.2-0.4-1.7-0.6
								c-2.4-0.9-4.5-2.2-6.5-3.8c-0.7-0.5-1.4-1.1-2.1-1.7c-1.5-1.3-3-2.6-4.4-3.9c-1.1-1-2.2-2-3.2-3.1c-1.5-1.6-3-3.2-4.4-4.9
								c-1.6-1.9-3.2-3.8-4.6-5.7c-2.4-3.1-4.7-6.5-6.8-9.9c-0.6-0.9-1.2-1.8-1.7-2.7c3.5,0.1,7,0,10.6-0.4c4.2-0.4,9.3-2,5.5-6.9
								c-2.1-2.7-6.2-4-9.4-4.9c-4.7-1.4-9.6-2.7-14.5-3.2c-0.6,0-1.1-0.1-1.7-0.2c-0.5-0.9-1-1.8-1.4-2.8c-1.9-3.9-3.6-8-5-12
								c3.1-0.1,6.2,0.3,8,1c2.7,1,7.1,3.7,9.8,1.9c3.8-2.5,0.4-5.5-2.1-7.3c-3.4-2.4-7.4-2.9-11.2-4c-1.4-0.4-2.7-0.8-4.1-1
								c-2.5-0.5-4.6-2.3-5.4-4.7l0,0c-1.7-5.3-4.1-12.1-8.9-15.6c-0.5-0.4-1.1-0.7-1.6-1c-2.1-1.1-4.3-1.7-6.6-2
								c1.1-0.3,2.3-0.5,3.4-0.7c9.9-1.8,20.7-1.4,30.6,0.1c0,0,0.1,0,0.1,0c2.6,0.4,4.7,2.3,5.4,4.8c0.2,0.7,0.5,1.5,0.7,2.2
								c1.1,3.1,2.3,8.6,5.5,10.2c3.7,1.8,4.6-4.5,4.6-7.1c0-2.2-1-4.1-1.8-6.1c4.4,1.3,8.9,2.2,13.3,3.8c4.5,1.6,9.2,3.3,13.6,5.1
								c0.6,3.9,0.5,8,0.7,11.8c0.3,6.4-1,13.9,3.3,19.3c2.3,2.8,4.6,4,7.6,1.6c2.8-2.3,3.5-5.4,3.5-8.8c0-5-1.6-9.3-3-14
								c-0.5-1.6-1.1-3.2-1.8-4.8c1.8,0.5,3.7,1.1,5.5,1.7c4.1,1.4,9.3,1.7,12.8,4.3c2.5,1.9,4.4,5.6,5.8,8.4
								C157.9,260.4,159.2,266.4,160.6,272.8z"/>
						</g>
						<g>
							<path class="st10" d="M161.7,323.8L161.7,323.8c0.7,2.1-2.3,3.1-3.2,1.2c0,0,0-0.1-0.1-0.1c-1.4-4-3.3-7.9-5.6-11.6
								c-2.3-3.9-5-7.8-7.8-11.5c-3.4-4.5-6.9-8.9-10.1-13.1c-1.6-2-3.2-4-4.8-6c-6.8-8.2-14.2-15.9-22.2-23
								c-9.9-8.8-20.2-17.5-31.8-24c-4.4-2.5-9.2-4.2-13.8-6.3c-3-1.4-6.1-2.8-9.3-3.6c-0.5-0.4-1.1-0.7-1.6-1
								c-2.1-1.1-4.3-1.7-6.6-2c1.1-0.3,2.3-0.5,3.4-0.7c3.5,0.2,6.8,0.8,8.5,1.4c13.5,4.5,26.1,11.7,37.4,20.3
								c13.8,10.6,26.7,22.5,37.8,35.9c0.8,1,1.7,2,2.5,3c4.5,5.3,9.2,11,13.5,17c1.4,1.9,2.8,3.9,4.1,5.9
								C156.1,311.4,159.5,317.6,161.7,323.8z"/>
						</g>
					</g>
					<path class="st17" d="M150.7,300.5c-4.6-3.6-7.6,4.3-7.7,7.9c-0.2,6.9,4.2,20.7,6.2,24.2c-1.2-0.7-2.5-1.3-3.8-2
						c-2.4-1.2-4.8-2.3-7.1-3.5c1-4,3.7-12.3-1.5-23.6c-0.9-1.9-2.2-4.4-4.5-4.6c-3.2-0.4-2.7,3-2.2,5.1c0.7,3.6,4,15.9,5.1,21.6
						c-4.8-2.3-9.5-4.7-14.3-6.9c0.5-7.9,1.1-17.5-3.9-24.2c-3.3-4.4-6.2,0.6-6.3,4c-0.2,6.2,2.5,12.7,6,18.2
						c-2.2-1.1-4.5-2.1-6.7-3.2c-0.4-0.2-0.8-0.4-1.2-0.6c0.6-3.9,1.6-7.5,0.8-11.5c-0.8-3.9-3.3-7.1-6.4-9.4
						c-1.4-1-2.9-2.4-4.8-2.2c-2.7,0.3-0.9,2.8,0,4.4c1.9,3.3,3.6,6.9,5.1,10.4c0.8,1.9,1.6,3.7,2.6,5.5c0.2,0.5,0.5,1.1,0.7,1.8
						c-3.2-1.5-6.5-2.9-9.8-4.2c-1.3-6.6-3-14.5-8.6-18.8c-3.7-2.8-4.9,1.9-4.2,4.7c1.1,4.4,4,8.5,7.4,11.9
						c-1.4-0.6-2.9-1.1-4.3-1.6c-3.9-6.8-8.5-15.4-16.4-18.1c-5-1.8-4.7,3.9-2.9,6.8c1.7,2.8,4.2,5.2,7,7.3c-0.7-0.2-1.3-0.4-2-0.6
						c-1.6-0.5-3.2-0.9-4.8-1.3c-2.5-6.2-5.5-13.8-11.8-17.1c-4.1-2.2-4.5,2.7-3.4,5.4c1.9,4.2,5.6,7.9,9.6,10.7
						c-2.5-0.4-5-0.7-7.5-1c-2.8-4.7-6.2-10.4-11.7-12.3c-3.6-1.2-3.3,2.8-2,4.8c1.9,2.9,4.9,5.2,8.2,7c-2.7-0.3-5.5-0.5-8.2-0.8
						c-1.9-1.6-4.1-3.1-5.9-4.3c-2.2-1.5-4.9-2.8-7.7-1.9c-3.6,1.2-3.7,3.9-1,6.3c1.2,1.1,2.7,1.7,4.3,2c-1.4,0.6-2.6,1.5-3.3,2.5
						c-0.7,1.1-0.8,1.9-0.4,2.6c0.6,1.2,2.3,1.8,4,1.8c3.1-0.1,5.8-1.9,8.5-3.2c0.8-0.4,1.7-0.7,2.6-0.9c1.2-0.3,2.5-0.6,3.7-1
						c1.8,0.2,3.6,0.3,5.4,0.5c0,0,0,0,0,0c-4.4,0.7-9.1,2.4-12.2,5.4c-1.7,1.7-2.9,5.5,0.9,5.1c6.1-0.5,10.9-5.8,14.8-9.8l0-0.3
						c0.8,0.1,1.7,0.2,2.5,0.3c0,0,0.1,0,0.1,0c4.2,0.6,8.4,1.3,12.6,2.4c0,0,0,0,0,0c-1.5,0.3-3,0.8-4.3,1.5c-2.4,1.2-5,5-0.7,5.9
						c5.5,1.1,11-1.3,15.9-4c5.4,1.8,10.7,3.8,15.9,6c-5.3-0.6-11.1-0.2-15.6,2.1c-2.6,1.3-5.3,5.4-0.8,6.3c7.3,1.5,14.8-3,20.8-6.3
						l0-0.2c0,0,0,0,0,0c2.4,1.1,4.9,2.1,7.3,3.3c1.2,0.6,2.4,1.1,3.5,1.7c0,0,0,0,0,0c-7.3-1-15.3-0.7-21.4,2.1
						c-3.5,1.6-7.1,6.8-0.8,8.1c10,2.2,20-3.2,28.1-7.4c0,0,0,0,0,0c3.3,1.6,6.6,3.3,9.9,4.9c-6.7,1.3-20.7,3.2-25.2,4.2
						c-2.1,0.5-6.9,2.1-4.9,5.2c1.1,1.7,5.2,2.4,7.2,2.4c4.3,0,18.9-4.8,28.1-9.3c0,0,0,0,0,0c2.4,1.2,4.7,2.3,7.1,3.4
						c0.9,0.4,1.8,0.8,2.6,1.3c-10.1,1.1-29.6,4.5-33.9,7.1c-2.2,1.3-5.4,4.1-4.1,6.9c1.3,3,6.1,1.7,8.6,1.6
						c5.9-0.2,23.1-7.4,26.1-9.1c2.3-1.4,4.4-3.3,6.6-4.8c0,0,0.1,0,0.1,0.1c1.9,1,3.7,2.1,5.5,3.3c-0.1,0.1-0.3,0.1-0.4,0.2
						c-7.6,3.4-24.1,9.7-29.2,12.2c-2.4,1.1-7.7,4.5-4.4,7.6c1.8,1.7,7,1.4,9.3,0.9c4.8-1.1,19.1-9.8,29-17.4
						c0.2-0.1,0.4-0.3,0.5-0.4c5.7,3.9,11.3,8.1,17.2,12.1c1.8,1.2,3.8-1.5,2-2.7c-8.6-5.8-16.3-12.3-25.2-17.4
						C154.7,321.9,152.7,302.1,150.7,300.5z"/>
					<g>
						<g>
							<path class="st11" d="M209.3,355.3c-0.3,1.3-3.5,1.3-4.8,1.6c-3.5,0.8-6.8,2.1-10.4,2.9c-4.4,1-9.1,2.5-13.3,4.2
								c-0.4,0.2-0.8,0.4-1.3,0.6c-1.5,0.7-2.9,1.6-4,2.8c-1.4,1.5-2.1,3.5-1.4,5.9c1.2,4,7.6,7.1,11,8.9c4.6,2.5,9.4,4.9,12.7,9
								c2.3,2.9,3,6.9,2,10.5c-1.6,5.5-5.4,7.7-10.5,9.4c-6.4,2.1-13.2,1-19.8,0c-6.5-1-13.5-2.9-19.8-5c-5.3-1.8-10.6-4.1-15.7-6.3
								c3.3-2.1,6.5-4.4,9.5-6.9c3.6-3,7.3-7.6,0.9-9.8c-3.6-1.2-8.1,0.2-11.7,1.3c-5.2,1.7-10.5,3.5-15.3,6.1
								c-0.5,0.3-1.1,0.6-1.7,0.8c-1-0.5-2-1.1-3-1.7c-4.2-2.5-8.2-5.1-12.1-7.9c2.7-2,5.9-3.5,8-4c3.1-0.7,8.8-1,10.2-4.3
								c2-4.7-3.1-5.3-6.5-5.5c-4.6-0.2-8.6,1.9-12.8,3.2c-1.5,0.5-3,1-4.4,1.5c-2.7,1.1-5.7,0.7-7.9-1l0,0
								c-4.9-3.8-11.3-8.7-17.9-8.9c-0.7,0-1.4,0-2.1,0.1c-2.7,0.3-5,1.1-7.3,2.2c0.9-1,1.8-1.9,2.7-2.8c0,0,0,0,0,0
								c8-7.8,18.2-14.1,28.2-18.8c0,0,0.1,0,0.1-0.1c2.6-1.2,5.7-0.8,8,1c0.7,0.5,1.3,1.1,2,1.6c2.9,2.2,7.5,6.5,11.4,6
								c1.9-0.3,2.5-1.6,2.4-3.1c-0.1-2.2-1.6-4.9-2.5-6.3c-0.7-1-1.6-1.8-2.5-2.5c-0.9-0.7-2-1.3-2.9-2c0.6-0.2,1.2-0.4,1.8-0.6
								l0,0c4.3-1.4,8.4-3,12.8-4.2c0.7-0.2,1.5-0.4,2.2-0.6c4-1,8-2,12-2.9c0.5-0.1,1-0.2,1.4-0.3c0.5,0.5,1,1.1,1.4,1.7
								c0.6,0.8,1.3,1.6,1.9,2.4c0.9,1.2,1.8,2.5,2.7,3.7c0.7,0.9,1.3,1.8,2,2.7c0.2,0.3,0.5,0.6,0.7,1c1.3,1.8,2.5,3.7,3.7,5.6
								c2.8,4,5.9,7.7,10.6,9.2c3.9,1.2,6.7,0.8,8-3.3c0.3-0.8,0.4-1.7,0.4-2.5c0.1-1.8-0.4-3.4-1.1-5c-0.4-0.9-1-1.8-1.6-2.7
								c-3.1-4.6-7.2-7.6-11.4-11c-0.9-0.7-1.7-1.4-2.6-2c-0.6-0.5-1.3-0.9-1.9-1.3c0.8-0.2,1.6-0.5,2.3-0.7
								c1.3-0.4,2.5-0.7,3.8-1.1c0.9-0.2,1.8-0.5,2.7-0.9c1-0.4,2.1-0.8,3.2-1.2c2.9-1.1,5.8-2,8.6-1.9c3.5,0.2,7.6,2.5,10.5,4.1
								c6.4,3.6,11.3,8.2,16.5,13.3c3.4,3.3,6.9,6.8,9.4,10.9C207.4,351.3,209.6,354.1,209.3,355.3z"/>
						</g>
						<g>
							<path class="st11" d="M227.8,388.7c-12.5-9.3-29.5-13.9-44.1-18.8c-2.7-0.9-5.4-1.8-8.2-2.6c-11.3-3.4-22.9-5.8-34.7-7.4
								c-4-0.5-8-1.1-12-1.5c-4-0.4-8-0.8-12-1c-6.7-0.4-13.5-0.5-20.2,0.1c-5.6,0.4-11.1,1.8-16.6,2.7c-3.7,0.6-7.3,1.2-10.8,2.5
								c-0.7,0-1.4,0-2.1,0.1c-2.7,0.3-5,1.1-7.3,2.2c0.9-1,1.8-1.9,2.7-2.8c0,0,0,0,0,0c3.4-2,6.8-3.5,8.6-4
								c15.1-4.2,30.9-5.4,46.4-4.4c0.2,0,0.4,0,0.6,0c5.6,0.4,11.3,0.9,16.9,1.5c13.6,1.6,27.1,4.2,40.2,8.1
								c1.4,0.4,2.8,0.8,4.2,1.2c17.1,5,36.5,10.8,50.6,21.2C232.1,387.3,229.8,390.2,227.8,388.7z"/>
						</g>
					</g>
				</g>
			</g>
			<g>
				<g>
					<path class="st12" d="M324.2,381.3l-104.5,30c-8.5,2.5-17.9-2.4-20.9-10.7l-85.4-239.4c-3-8.4,1.5-17.2,10-19.6l104.5-30
						c8.5-2.5,17.9,2.4,20.9,10.7l85.4,239.4C337.2,370.1,332.7,378.8,324.2,381.3z"/>
					
						<linearGradient id="SVGID_4_" gradientUnits="userSpaceOnUse" x1="179.1753" y1="124.7267" x2="319.1808" y2="470.7393" gradientTransform="matrix(0.9991 -4.170000e-02 4.170000e-02 0.9991 -9.66 15.5567)">
						<stop  offset="3.886220e-03" style="stop-color:#B2DEE8"/>
						<stop  offset="8.833892e-03" style="stop-color:#B3DEE8"/>
						<stop  offset="0.2452" style="stop-color:#CDE4ED"/>
						<stop  offset="0.4865" style="stop-color:#E0E9F1"/>
						<stop  offset="0.7349" style="stop-color:#EBEBF3"/>
						<stop  offset="1" style="stop-color:#EFECF4"/>
					</linearGradient>
					<path class="st23" d="M332.3,378.9l-104.5,30c-8.5,2.5-17.9-2.4-20.9-10.7l-85.4-239.4c-3-8.4,1.5-17.2,10-19.6l104.5-30
						c8.5-2.5,17.9,2.4,20.9,10.7l85.4,239.4C345.3,367.7,340.8,376.5,332.3,378.9z"/>
					<path class="st5" d="M330.2,345.9l-46.1,13.2L208.1,381c-0.9,0.3-1.9-0.2-2.2-1.1l-9.7-27.3l-17.3-48.5l0,0l-27.7-77.7l0,0
						l-23.6-66.1c-0.3-0.9,0.2-1.8,1.1-2.1l119.8-34.4l0,0l2.3-0.7c0.9-0.3,1.9,0.3,2.2,1.1l22.6,63.3l21,59l24.4,68.3l10.3,29
						C331.6,344.7,331.1,345.7,330.2,345.9z"/>
					<g>
						<path class="st5" d="M275.5,187.5l-96.7,116.6l-27.7-77.7l0,0l97.3-102.6l0,0l2.3-0.7c0.9-0.3,1.9,0.3,2.2,1.1L275.5,187.5z"
							/>
						<path class="st5" d="M320.9,314.8l-36.8,44.3L208.1,381c-0.9,0.3-1.9-0.2-2.2-1.1l-9.7-27.3l100.4-106L320.9,314.8z"/>
					</g>
					<path class="st14" d="M212.9,124.4l-52.6,15.1c-0.7,0.2-1.4-0.2-1.7-0.9l0,0c-0.2-0.7,0.1-1.4,0.8-1.6l52.6-15.1
						c0.7-0.2,1.4,0.2,1.7,0.9l0,0C213.9,123.5,213.5,124.2,212.9,124.4z"/>
					
						<ellipse transform="matrix(0.4214 -0.9069 0.9069 0.4214 -183.1747 466.3642)" class="st9" cx="273.9" cy="376.7" rx="10.7" ry="11.4"/>
				</g>
				<path class="st24" d="M231.4,313.9l44.5-2c0,0,15.6,23.4,17.7,44.3L225.2,376C225.2,376,219.1,339.4,231.4,313.9z"/>
				<path class="st4" d="M262.6,325.8c-0.1-0.3-0.5-0.2-0.5,0.2c0.8,4.2,1.2,8.4,1.2,12.6c0,1.8,0.1,4.7-0.4,6.3
					c0.2,1.7-0.7,2.7-2.7,2.9c-0.9,0.1-1.7,0.1-2.6,0.1c-0.3,0-0.3,0.5,0,0.5c1.2,0,2.2,0,3-0.1c0,0,0,0,0,0
					c0.1,5.8-0.2,11.5-1.1,17.2c0,0.3,0.4,0.4,0.5,0.1c0.9-5.7,1.2-11.5,1.1-17.3c0,0,0,0,0-0.1c1.8-0.3,2.1-1.3,2.5-4.8
					C264.1,337.5,263.7,331.6,262.6,325.8z"/>
				<path class="st4" d="M273.5,318.9c-0.2-1-0.4-2-0.6-3c-0.1-0.3-0.5-0.2-0.5,0.2c0.2,1,0.4,2,0.6,3c0,0.1,0.1,0.1,0.1,0.1
					c-0.1,0-0.1,0-0.2,0c-0.2,0.1-0.5,0.3-0.7,0.4c-0.3-1-0.6-1.9-0.9-2.9c-0.1-0.3-0.6-0.2-0.5,0.2c0.3,1,0.6,2,1,3
					c-8.3,4.4-18.9,3.4-28.4,1.9c-0.1-1.1-0.1-2.2,0.1-3.3c0.1-0.3-0.4-0.4-0.5-0.1c-0.2,1.1-0.2,2.2-0.1,3.4
					c-0.3-0.1-0.7-0.1-1-0.2c0,0,0,0,0-0.1c0-1,0.1-2,0.4-3c0.1-0.3-0.4-0.4-0.5-0.1c-0.2,1-0.4,2-0.4,3.1c-1.4-0.2-2.8-0.5-4.2-0.7
					c-0.3-0.1-0.4,0.4-0.1,0.5c1.9,0.3,3.8,0.6,5.9,1c0,0,0,0.1,0,0.1c0,0.3,0.5,0.3,0.5,0c0,0,0,0,0,0c9.5,1.5,20.1,2.5,28.5-2
					c0.1,0.2,0.5,0.1,0.4-0.2l0,0c0.3-0.2,0.6-0.3,0.8-0.5c0.2-0.1,0.1-0.4-0.1-0.4C273.3,319.3,273.5,319.1,273.5,318.9z"/>
				<path class="st4" d="M260.4,318.6c-0.6-0.2-1.2-0.1-1.6,0.4c-0.6,0.8,0.3,1.6,1.1,1.8c0.8,0.2,1.8-0.3,1.8-1.2
					C261.7,318.8,261.1,318.4,260.4,318.6z M261,320c-0.3,0.4-1,0.4-1.4,0.2c-0.5-0.3-0.6-0.9,0-1.1c0.2-0.1,0.4,0,0.6,0
					c0.1,0,0.1,0.1,0.2,0c0.2,0.1,0.4,0.2,0.6,0.2c0.1,0,0.1,0,0.2,0C261.2,319.5,261.2,319.8,261,320z"/>
				<g>
					<g>
						<path class="st4" d="M275.4,237.4L275.4,237.4c-2.1,3.3-1.8,7.6,0.8,10.5l27.3,30.7c2.9,3.3,8.2,3,10.7-0.7l19.7-28.6
							l-8.6-3.2l-15.1,16.4l-20.9-25.8C285.8,232.1,278.7,232.4,275.4,237.4z"/>
						<g>
							<path class="st10" d="M330.8,251c0-0.1,0-0.2,0-0.3c0-0.2,0-0.4,0-0.6c0.1-0.1,0.1-0.2,0.1-0.4c0.4-5,0.2-10-0.6-15
								c-0.1-1.5-0.2-2.9-0.7-4c-0.1-0.3-0.4-0.4-0.7-0.5c-0.6,0-1,0.1-1.7,0.2c-0.2,0-0.4,0.2-0.5,0.4c-0.2,0.1-0.3,0.2-0.4,0.5
								c-1,4.8-6.2,18.9-1.1,23.3c0.6,0.7,1.4,1.2,2.5,1.1C330.3,255.6,330.9,253.1,330.8,251z"/>
							<path class="st4" d="M328.9,236c0.1-0.3-0.5-0.3-0.5,0c-0.8,5.2-1.1,10.3-0.9,15.6c0,0.3,0.5,0.4,0.5,0
								C327.8,246.3,328.1,241.1,328.9,236z"/>
							<path class="st16" d="M330.7,249.4l2.7,0.6l3.9-5.6c0,0,2.6-3.7-2-7.1c-2.7-2-6.2-2.6-9.5-1.8l-2.6,0.6c0,0-2,2.5,5.9,2.2
								c0,0-6.1-0.6-6.4,1.8c0,0-1.1,2.6,8.1,0.7c0,0-7.5,0.1-8.2,3c0,0-0.2,2.6,8.7,0C331.1,243.8,331,244.8,330.7,249.4z"/>
							<g>
								<path class="st7" d="M329.6,221c0.6,0,35.5-15,35.5-15l-2.3,41.6l-33.6-13.9C323.9,233.7,323.9,221.1,329.6,221z"/>
								<path class="st10" d="M369.8,226.8c-0.7,11.6-3.6,20.8-6.5,20.7c-2.3-0.1-4-6.2-4.2-14.4c-0.1-2.2,0-4.5,0.1-6.8
									c0.2-3.1,0.5-6,1-8.6c1.2-7.2,3.4-12.1,5.5-12C368.6,205.7,370.4,215.3,369.8,226.8z"/>
								<path class="st7" d="M365.4,225.7c-0.2,3.9-2.9,7-6.3,7.4c-0.1-2.2,0-4.5,0.1-6.8c0.2-3.1,0.5-6,1-8.6
									C363.3,218.4,365.6,221.8,365.4,225.7z"/>
								<path class="st10" d="M329.6,234l-3.5-0.2c-3.7-0.2-6.5-3.3-6.3-7l0,0c0.2-3.7,3.3-6.5,7-6.3l3.5,0.2
									C326,225.1,326.1,229.6,329.6,234z"/>
								<g>
									<path class="st4" d="M357.6,210.5c-8.6,3.5-17.2,7.1-25.7,10.8c-0.3,0.1-0.1,0.6,0.2,0.4c8.5-3.7,17.1-7.3,25.7-10.8
										C358.1,210.8,357.9,210.3,357.6,210.5z"/>
									<path class="st4" d="M361.4,244.4c-4-11.4-2.2-24.1,1.2-35.4c0.1-0.3-0.4-0.5-0.5-0.2c-3.5,11.4-5.3,24.2-1.2,35.7
										C361,244.9,361.5,244.7,361.4,244.4z"/>
									<path class="st4" d="M365.8,208.7c-0.1-0.3-0.6-0.1-0.4,0.2c1,2.4,1.4,4.8,1.4,7.4c0,0.3,0.5,0.4,0.5,0
										C367.3,213.7,366.9,211.2,365.8,208.7z"/>
									<path class="st4" d="M367.8,212.1c-0.1-0.3-0.6-0.2-0.5,0.1c0.6,3.1,0.8,6.2,0.6,9.4c0,0.3,0.5,0.4,0.5,0
										C368.7,218.5,368.5,215.3,367.8,212.1z"/>
									<path class="st4" d="M362.2,221.1c-0.2-0.2-0.6,0.1-0.4,0.3c1.7,1.7,1.4,5.8,0.2,7.6c-0.2,0.3,0.2,0.5,0.4,0.3
										C363.8,227.3,364,223,362.2,221.1z"/>
									<path class="st4" d="M329.9,234c-3.6-3-4-8-1-11.6c0.2-0.2-0.2-0.5-0.4-0.3c-3.2,3.8-2.7,9.1,1.1,12.3
										C329.9,234.6,330.2,234.2,329.9,234z"/>
								</g>
							</g>
							<path class="st4" d="M332.4,237c-2.2,0-4.3,0.4-6.4,0.9c-0.3,0.1-0.2,0.6,0.1,0.5c2.1-0.5,4.1-0.9,6.2-0.9
								C332.7,237.5,332.7,237,332.4,237z"/>
							<path class="st4" d="M331.8,239.8c-2.1,0.3-4.1,0.8-6.1,1.3c-0.3,0.1-0.2,0.6,0.1,0.5c2-0.6,4-1,6.1-1.3
								C332.3,240.3,332.2,239.8,331.8,239.8z"/>
							<path class="st4" d="M335.4,241.6c-1.4,0.7-2.8,1.4-4.3,1.9c0,0,0,0,0,0c-0.1-0.1-0.3,0-0.3,0.2c0,0.6,0.1,1.2,0.1,1.8
								c0,0.5,0,1-0.1,1.5c0,0.3,0.4,0.4,0.5,0.1c0-0.1,0.1-0.3,0.1-0.4c0,0,0,0,0,0c0.4-0.9,0.8-1.9,1.1-2.8c0-0.1,0-0.2-0.1-0.3
								c1.1-0.5,2.2-0.9,3.3-1.5C336,241.9,335.7,241.5,335.4,241.6z"/>
						</g>
					</g>
					<path class="st11" d="M291,238.1l-2.4,13.2c-1.6,9-4.3,17.9-8,26.3l-6,13.7l0.1,29.2c-17.6,9.8-43.4-6.6-43.4-6.6l4.4-58.8
						c1.6-21,10.1-27.6,16.1-29.3c3.3-0.9,6.8-1.2,10.2-0.9c0.3,0,0.6,0.1,0.9,0.1c1.3,0.1,2.5,0.4,3.8,0.7l7.9,1.9
						c2.6,0.6,5.1,1.6,7.4,3c0,0,0.1,0,0.1,0c0.4,0.3,0.9,0.5,1.3,0.8C286.2,233.2,288.8,235.5,291,238.1z"/>
					<path class="st4" d="M282.1,230.6c0.4,10.1-2,18.3-6.1,19.7c-5,1.6-10.5-7.4-12.5-20.3c-0.2-1.7-0.4-3.4-0.5-5
						c1.3,0.1,2.5,0.4,3.8,0.7l7.9,1.9C277.2,228.3,279.7,229.3,282.1,230.6z"/>
					<g>
						<path class="st16" d="M262.5,305l12.9-0.8l4.3,8.9c0.9,1.7,1.8,3.4,2.6,5.3l1.5,0.3c2.2,0.5,4.3,1.4,6.2,2.8l4.3,3.2
							c0.7,0.7,0.3,1.8-0.8,1.4l-3.7-2.1l2.1,2.6c1.2,1.4,2.2,3,3.2,4.6l1.5,2.5c0.3,0.8-0.7,1.6-1.4,0.9l-4.6-6.1l2.6,3.9l2.5,4.4
							c0.5,1.1-0.9,1.6-1.3,1l-2.3-3.6l-3.2-4.2l1.6,3.7c0.3,0.8,0.6,1.7,0.7,2.5l0.4,3c-0.3,1.4-1,1.1-1.7,0.4l-0.5-2.6
							c-0.2-1-0.5-1.9-1-2.8l-2-3.4l1,7.4c-0.1,1.1-1.7,1.1-1.7,0c-0.2-2.9-1.6-7.2-1.6-7.2c-2.7-1.6-4.9-3.9-6.4-6.8l-2-3.9
							L262.5,305z"/>
						<path class="st4" d="M260.8,242.2l0.6,28.7l19.4,45.1l-5,7.2l-19.7-26.7c-7.2-9.8-12-21.3-13.8-33.6l-2.6-16.9
							c-0.9-5.9,0.7-12,4.7-16.3c5-5.4,9.8-4.8,14.2,3.9C260,236.3,260.7,239.3,260.8,242.2z"/>
					</g>
					<path class="st16" d="M281.4,221.5l-4.5,7L276,230c-0.1,0.2-5.4,7.1-8.6,1.4c-1.7-3-2.7-5.4-2.4-5.9l5.9-10l3.9-6.5
						L281.4,221.5z"/>
					<path class="st21" d="M281.4,221.5l-4.5,7c-3.5-2.9-5.8-7.5-6-12.8l0-0.2l3.9-6.5L281.4,221.5z"/>
					<path class="st16" d="M288.5,220.4c-0.9,0.8-2,1.4-3,1.9c-0.6,0.2-1.1,0.4-1.7,0.6c-5.5,1.5-12.3-4.1-15.8-10.4
						c-2.5-0.5-5.2-1.4-6.2-5c-0.8-2.8-0.2-6.7,2.1-7.1c0.7-0.1,1.5,0.1,2.3,0.5c1.3-8.3,6.6-18,12.3-19.1
						c7.5-1.4,14.2,1.9,16.5,22.1C295.7,210.1,293.1,216.7,288.5,220.4z"/>
					<g>
						<path class="st4" d="M284.7,213.9c0.8,0.4,1.5,0.6,2.2,0.5c0.4-0.1,0.7-0.3,1-0.5c0.3-0.3,0.5-0.7,0.6-1.1
							c0.1-0.8-0.1-1.8-0.7-2.9l-2.5-5.8c-0.1-0.2-0.3-0.3-0.6-0.2c-0.2,0.1-0.3,0.4-0.2,0.6l2.5,5.8c0.6,1.2,0.7,2,0.5,2.6
							c0,0.2-0.1,0.3-0.3,0.5c-0.4,0.4-1.2,0.4-1.9,0c0,0-0.1,0-0.1-0.1c-0.2-0.1-0.5-0.1-0.6,0.2c0,0,0,0,0,0.1
							C284.5,213.5,284.5,213.7,284.7,213.9z"/>
					</g>
					<g>
						<g>
							<path class="st4" d="M291.2,203.7c0.2,0.9-0.3,1.7-1.1,1.8c-0.8,0.1-1.6-0.4-1.7-1.3c-0.2-0.9,0.3-1.7,1.1-1.8
								C290.2,202.3,291,202.8,291.2,203.7z"/>
							<path class="st4" d="M281.3,204.4c0.2,0.9-0.3,1.7-1.1,1.8c-0.8,0.1-1.6-0.4-1.7-1.3c-0.2-0.9,0.3-1.7,1.1-1.8
								C280.4,203,281.1,203.5,281.3,204.4z"/>
							<g>
								<path class="st3" d="M284.3,215c-0.1-0.2-5.4-4-5.7-3.9c-0.3,0.1-0.6,0.4-0.5,0.7c0.3,1.6,1.8,4.5,5.7,4.1
									c0.3,0,0.6-0.3,0.5-0.7C284.3,215.2,284.3,215.1,284.3,215z"/>
							</g>
						</g>
						<g>
							<path class="st4" d="M287.1,199.1c0.1,0.1,0.3,0.1,0.4,0.1c2.5-1.1,3.5,1.1,3.5,1.2c0.1,0.2,0.3,0.3,0.6,0.2
								c0.2-0.1,0.3-0.4,0.2-0.6c-0.5-1-2.1-2.7-4.6-1.6c-0.2,0.1-0.3,0.3-0.2,0.6C287.1,199,287.1,199.1,287.1,199.1z"/>
						</g>
						<g>
							<path class="st4" d="M281.3,199.9c-0.1,0.1-0.3,0.2-0.4,0.1c-2.5-0.9-3.4,1.4-3.4,1.5c-0.1,0.2-0.3,0.3-0.5,0.2
								c-0.2-0.1-0.3-0.3-0.2-0.6c0.4-1.1,1.8-2.9,4.5-2c0.2,0.1,0.3,0.3,0.3,0.5C281.3,199.8,281.3,199.8,281.3,199.9z"/>
						</g>
					</g>
					<path class="st4" d="M259.6,318.3c-8.5,0.7-16.6-1.7-23.4-6.9c-0.3-0.3-0.8,0.2-0.5,0.5c6.9,5.3,15.2,7.8,23.9,7.1
						C260,319,260,318.3,259.6,318.3z"/>
					<path class="st4" d="M261.5,315.4c-5.4,0.2-13.4,1.1-17.9-2.4c-0.3-0.3-0.8,0.2-0.5,0.5c4.7,3.6,12.9,2.8,18.4,2.6
						C261.9,316,261.9,315.4,261.5,315.4z"/>
					<path class="st4" d="M274.8,261.3c-3.3,6.8-5,14-5.3,21.5c0,0.4,0.7,0.4,0.7,0c0.3-7.4,2-14.4,5.3-21.1
						C275.6,261.2,275,260.9,274.8,261.3z"/>
					<path class="st4" d="M283.6,233.4c-0.2,3.7-0.4,7.4-1.6,10.9c-0.6,1.8-1.5,4-2.9,5.3c-5.1,4.7-8.9,1.5-11.7-2.2
						c-4.2-5.5-6.7-14-6.6-20.9c0-0.4-0.7-0.4-0.7,0c-0.1,7.7,3.6,23.6,12.5,26.1c9.6,2.6,11.3-13.3,11.6-19.2
						C284.3,233,283.6,233,283.6,233.4z"/>
					<g>
						<path class="st19" d="M292,339.1l64.9-5.9c1.4-0.1,2.6-1.2,2.7-2.7l4.6-39.3c0.2-1.9-1.4-3.5-3.3-3.4l-64.9,5.9
							c-1.4,0.1-2.6,1.2-2.7,2.7l-4.6,39.3C288.5,337.6,290.1,339.2,292,339.1z"/>
						<path class="st20" d="M333.7,313.8c0.3,2.9-2.1,5.6-5.3,5.8c-3.2,0.3-6-1.9-6.3-4.8c-0.3-2.9,2.1-5.6,5.3-5.8
							C330.6,308.7,333.4,310.9,333.7,313.8z"/>
						
							<rect x="291.3" y="336.3" transform="matrix(-0.9959 9.067585e-02 -9.067585e-02 -0.9959 673.5112 645.965)" class="st20" width="61.6" height="3.9"/>
						
							<rect x="259.4" y="340.6" transform="matrix(-0.9959 9.067510e-02 -9.067510e-02 -0.9959 580.793 658.6721)" class="st19" width="32.1" height="3.9"/>
						<g>
							<path class="st4" d="M298.5,295.8c10.9-1.1,21.8-2,32.7-2.7c0.3,0,0.3,0.5,0,0.5c-10.9,0.6-21.8,1.5-32.7,2.7
								C298.2,296.4,298.2,295.9,298.5,295.8z"/>
							<path class="st4" d="M295.7,296.9c0-0.3,0.5-0.2,0.5,0.1c-1.3,13.3-2.5,26.7-3.6,40c0,0.3-0.5,0.3-0.5,0
								C293.3,323.7,294.5,310.3,295.7,296.9z"/>
							<path class="st4" d="M328,308.7c0.3,0,0.2,0.5-0.1,0.5c-7.4-1.1-7,11.8,0.6,10.3c0.3-0.1,0.5,0.4,0.2,0.5
								c-3.4,0.7-6.5-1.8-6.7-5.2C321.8,311.1,324.3,308.2,328,308.7z"/>
							<path class="st4" d="M261.3,344.4c9.4-0.9,18.7-1.7,28.1-2.6c0.3,0,0.3,0.5,0,0.5c-9.4,0.9-18.7,1.7-28.1,2.6
								C261,344.9,261,344.4,261.3,344.4z"/>
						</g>
					</g>
					<g>
						<g>
							<path class="st10" d="M303.5,186.5c-1.3,0.5-2.7,0.5-4,0.1c-1.9-0.6-2.7-2.2-3.8-3.8c-1.9-2.7-4.6-6-8.1-6
								c-1.7,0-3.2,0.4-4.7,1.1c-1.2,0.6-1,0.1-1.9-0.7c-0.6-0.6-1.6-1.1-2.4-1.3c-3.4-0.7-6.1,0.5-8.4,2.9
								c-1.8,1.8-2.9,4.2-4.6,6.1c-1.5,1.7-3.9,3.1-6.2,3.4c1.4,0.9,3.9,1.3,6,1.4c-0.4,1.1-0.5,2.4-0.5,3.4
								c-0.1,3.2,0.1,6.5-2.9,8.1c1.7-0.1,3.1-0.7,4.3-0.2c0.2,1.9,0.6,2.4,1.1,4.2c0.5,1.8,1.7,4.6,3.4,5.5
								c0.3-3.6-1.8-7.3,0.9-10.5c2.2-2.7,7-3.8,7.9-7.5c-0.2,2.4-0.2,4.2-1.7,6.2c3.8,0.2,8.8-3.2,10.5-6.6
								c-0.5,2.5,0.7,3.7,2.3,5.3c1.7,1.6,2.8,3.3,3.1,5.7c0.6-0.7,0.9-2.1,0.9-3.7c0.4,1,0.7,2,1,2.9c0.5,1.8,0.7,5.1,0.1,6.9
								c2-4,3.9-8.1,3.9-12.7c0-3.1-1.1-5.6-2.5-8.2C299.5,189.8,301.9,188.5,303.5,186.5z"/>
						</g>
						<path class="st4" d="M286.6,189.4c-0.9,3.6-3.6,6.1-6.8,7.7c-0.3,0.1,0,0.6,0.3,0.4c3.3-1.7,6.2-4.2,7.1-8
							C287.2,189.2,286.7,189.1,286.6,189.4z"/>
						<path class="st4" d="M293.9,197.5c-2.7-2.2-4.8-4.7-4.1-8.4c0.1-0.3-0.4-0.4-0.5-0.1c-0.8,3.9,1.3,6.6,4.2,8.9
							C293.9,198.1,294.2,197.7,293.9,197.5z"/>
						<path class="st4" d="M294.5,187.3c-0.2-0.2-0.6,0.1-0.3,0.4c4.7,4.4,4.7,10.7,2.3,16.3c-0.1,0.3,0.3,0.5,0.4,0.2
							C299.4,198.4,299.3,191.9,294.5,187.3z"/>
						<path class="st4" d="M297,186.6c-3.5-1.6-3.4-6.3-7-7.9c-2.5-1.1-5.1-0.2-6.9,1.7c-0.2,0.2,0.1,0.6,0.4,0.3
							c1.6-1.8,4-2.6,6.3-1.6c1.8,0.8,2.7,2.4,3.6,4.1c0.8,1.6,1.7,3,3.4,3.7C297,187.2,297.3,186.7,297,186.6z"/>
						<path class="st4" d="M279.9,179.8c-1.8-1.7-4.5-2.5-6.9-1.4c-3.8,1.7-4.3,6.8-8.4,8.2c-0.3,0.1-0.2,0.6,0.2,0.5
							c2-0.7,3.1-2,4.3-3.7c1-1.5,1.9-3.2,3.5-4.2c2.3-1.4,5.1-0.8,7,0.9C279.8,180.4,280.1,180,279.9,179.8z"/>
						<path class="st4" d="M272.2,184.3c-2,1.1-3.4,2.8-4.2,5c-1.2,3.1-0.6,8.6-3.6,10.5c-0.3,0.2,0,0.6,0.3,0.4
							c2-1.2,2.2-3.3,2.6-5.4c0.6-3.9,1.4-8,5.2-10C272.7,184.6,272.4,184.1,272.2,184.3z"/>
						<path class="st4" d="M281,186.4c-1.1,3.9-3.2,7.2-6.4,9.7c-1.5,1.1-3.2,1.9-4.4,3.4c-2,2.6-1.4,5.9-0.8,8.9
							c0.1,0.3,0.5,0.2,0.5-0.2c-0.8-3.7-0.9-6.9,2-9.7c1.4-1.3,3.2-2.1,4.6-3.4c2.6-2.4,4.1-5.3,5-8.7
							C281.5,186.2,281,186.1,281,186.4z"/>
						<path class="st4" d="M280.7,182.6c-6.2,0.2-8.5,6.5-9.9,11.5c-0.1,0.3,0.4,0.4,0.5,0.1c1.4-4.8,3.5-10.9,9.5-11.1
							C281,183.1,281,182.6,280.7,182.6z"/>
						<path class="st4" d="M287.5,182.9c-0.9-0.8-2.2-0.9-3,0c-0.2,0.2,0.1,0.6,0.4,0.3c1-1,2.4-0.2,2.9,0.8c0.6,1,0.8,2.3,1,3.4
							c0,0.3,0.5,0.3,0.5,0C289,185.9,288.7,184,287.5,182.9z"/>
					</g>
				</g>
			</g>
			<g>
				<g>
					<g>
						<path class="st3" d="M217.8,178.1c1.7-0.4,2.7-2.2,2.1-3.9c-0.5-1.4-2.1-2.2-3.6-1.8l-10.8,2.6c0.2-2.5-0.1-5-0.9-7.4
							c-1.1-3.4-2.7-5-4.8-4.8c-1.2,0.1-2.1,1.3-1.8,2.5c0.8,3.4,0.8,6.9,0,10.3l-1,4.3c-0.4,1.6-1.3,3-2.6,3.9L198,198l0,0
							c2.6,0.3,5.3,0.1,7.9-0.5l11.7-2.8c1.6-0.4,2.6-2,2.2-3.6l0,0c-0.2-0.7-0.6-1.4-1.2-1.8c1.5-0.4,2.5-2,2.1-3.6
							c-0.2-0.8-0.7-1.5-1.4-1.9l0,0c1.6-0.4,2.6-2,2.2-3.6l0,0C221,178.7,219.4,177.7,217.8,178.1z"/>
						<path class="st10" d="M196.7,200.2l-5.8,1.4c-1.3,0.3-2.6-0.5-2.9-1.8l-3.3-13.6c-0.3-1.3,0.5-2.6,1.8-2.9l5.8-1.4
							c1.3-0.3,2.6,0.5,2.9,1.8l3.3,13.6C198.8,198.6,198,199.9,196.7,200.2z"/>
					</g>
				</g>
				<path class="st4" d="M193.6,182.7c-1.4,0.1-2.8,0.4-4,1c-0.8,0.4,0,1.5,0.7,1.1c0.8-0.4,1.7-0.6,2.7-0.8
					c0.7,2.7,1.4,5.4,2.1,8.1c0.2,0.8,1.4,0.4,1.2-0.4c-0.7-2.7-1.4-5.4-2.1-8.1C194.4,183.3,194.2,182.7,193.6,182.7z"/>
				<path class="st4" d="M201.4,163.9c-0.6-0.6-1.5,0.4-0.9,1c3.3,3.1,3.7,7.6,3.1,11.9c-0.1,0.8,1.1,1.1,1.3,0.3
					C205.6,172.3,205,167.3,201.4,163.9z"/>
				<path class="st4" d="M217.6,176.5c-2.2,0.4-4.3,0.9-6.4,1.5c-0.8,0.2-0.4,1.5,0.4,1.2c2.1-0.6,4.3-1.1,6.4-1.5
					C218.8,177.6,218.4,176.3,217.6,176.5z"/>
				<path class="st4" d="M217.8,182.8l-4.3,1.4c-0.8,0.3-0.4,1.5,0.4,1.2l4.3-1.4C219,183.8,218.6,182.6,217.8,182.8z"/>
				<path class="st4" d="M218.5,188.6l-2.4,0.8c-0.8,0.3-0.4,1.5,0.4,1.2l2.4-0.8C219.7,189.6,219.3,188.3,218.5,188.6z"/>
			</g>
		</g>
	</g>
</g>
<g id="DESIGNED_BY_FREEPIK">
	<path class="st25" d="M750.4,501.1h-760V0.1l744,0c8.8,0,16,7.2,16,16V501.1z"/>
</g>
</svg>
